<svg width="72" height="29" viewBox="0 0 72 29" fill="none" xmlns="http://www.w3.org/2000/svg">
<path d="M15.31 21.9C14.35 22.9 13.25 23.93 12 25C6.67 20.45 4 16.52 4 13.2C4 8.22 7.8 5 12 5C16 5 19.64 7.92 19.97 12.5H23.5L19 17L14.5 12.5H17.97C17.65 9.24 15.13 7 12 7C8.65 7 6 9.57 6 13.2C6 15.54 7.95 18.64 12 22.34C12.64 21.75 13.23 21.18 13.77 20.63C13.594 20.2828 13.5016 19.8993 13.5 19.51C13.5 18.847 13.7634 18.2111 14.2322 17.7422C14.7011 17.2734 15.337 17.01 16 17.01C16.663 17.01 17.2989 17.2734 17.7678 17.7422C18.2366 18.2111 18.5 18.847 18.5 19.51C18.4997 19.8967 18.4093 20.278 18.2361 20.6238C18.0629 20.9695 17.8117 21.2702 17.5022 21.5021C17.1927 21.734 16.8335 21.8906 16.453 21.9597C16.0726 22.0287 15.6812 22.0083 15.31 21.9Z" fill="#222222"/>
<path d="M35.9844 8.34375L36.0781 8.375C36.1302 8.45833 36.1458 8.55729 36.125 8.67188C36.1198 8.71354 36.0859 8.77344 36.0234 8.85156C35.9974 8.88802 35.9714 8.92188 35.9453 8.95312C35.9245 8.97917 35.9062 9.00521 35.8906 9.03125C35.776 9.125 35.7109 9.1901 35.6953 9.22656C35.6745 9.26823 35.6354 9.30208 35.5781 9.32812C35.3906 9.40104 35.2448 9.4375 35.1406 9.4375C35.0833 9.4375 35.0182 9.4375 34.9453 9.4375C34.8724 9.43229 34.7917 9.42708 34.7031 9.42188C34.5781 9.42188 34.487 9.42708 34.4297 9.4375C34.3724 9.44792 34.2812 9.46875 34.1562 9.5C34.1354 9.50521 34.1172 9.51042 34.1016 9.51562C34.0859 9.52083 34.0729 9.52604 34.0625 9.53125C34.0521 9.53646 34.0365 9.54167 34.0156 9.54688C34 9.55208 33.9792 9.55729 33.9531 9.5625C33.9062 9.58333 33.8568 9.59375 33.8047 9.59375C33.7578 9.59375 33.7188 9.60938 33.6875 9.64062C33.6354 9.63021 33.6042 9.63021 33.5938 9.64062C33.5885 9.64583 33.5573 9.66146 33.5 9.6875C33.4271 9.69792 33.3776 9.70833 33.3516 9.71875C33.3255 9.72917 33.2917 9.74479 33.25 9.76562C33.224 9.74479 33.1823 9.74219 33.125 9.75781C33.099 9.76302 33.0729 9.77083 33.0469 9.78125C33.0208 9.78646 32.9948 9.79167 32.9688 9.79688C32.8854 9.81771 32.8151 9.83333 32.7578 9.84375C32.7109 9.84896 32.6562 9.86979 32.5938 9.90625C32.5833 9.94271 32.5677 9.97135 32.5469 9.99219C32.526 10.013 32.5208 10.0417 32.5312 10.0781C32.4635 10.151 32.4115 10.2344 32.375 10.3281C32.3385 10.4167 32.2812 10.4948 32.2031 10.5625L32.1094 10.7266C32.0729 10.7943 32.0312 10.8438 31.9844 10.875C31.9583 10.9635 31.9245 11.0339 31.8828 11.0859C31.8307 11.1432 31.7865 11.2031 31.75 11.2656C31.6667 11.4062 31.5781 11.6068 31.4844 11.8672C31.3906 12.1276 31.3021 12.3281 31.2188 12.4688C31.1823 12.5885 31.125 12.7057 31.0469 12.8203C30.9688 12.9349 30.9062 13.0417 30.8594 13.1406C30.8177 13.3177 30.7682 13.4896 30.7109 13.6562C30.6536 13.8177 30.5885 13.974 30.5156 14.125C30.3698 14.4271 30.2292 14.7396 30.0938 15.0625C30.0417 15.1771 30.0078 15.2422 29.9922 15.2578C29.9766 15.2734 29.9688 15.2969 29.9688 15.3281C29.9115 15.3854 29.8724 15.4505 29.8516 15.5234C29.8307 15.5911 29.8021 15.6667 29.7656 15.75C29.7604 15.776 29.724 15.8229 29.6562 15.8906C29.6458 15.9167 29.6354 15.9453 29.625 15.9766C29.6146 16.0026 29.6042 16.0312 29.5938 16.0625C29.5833 16.0938 29.5729 16.125 29.5625 16.1562C29.5521 16.1823 29.5417 16.2083 29.5312 16.2344C29.5 16.2708 29.4844 16.3125 29.4844 16.3594C29.4844 16.401 29.474 16.4323 29.4531 16.4531C29.3906 16.5677 29.3594 16.6406 29.3594 16.6719C29.3594 16.6927 29.3542 16.724 29.3438 16.7656C29.3021 16.849 29.2682 16.9245 29.2422 16.9922C29.2161 17.0547 29.1979 17.1068 29.1875 17.1484C29.1615 17.2526 29.125 17.3333 29.0781 17.3906C29.0781 17.4479 29.0677 17.4948 29.0469 17.5312C29.0365 17.5521 29.026 17.5729 29.0156 17.5938C29.0052 17.6146 28.9948 17.6354 28.9844 17.6562C29.0052 17.7396 28.9896 17.8307 28.9375 17.9297C28.9115 17.9818 28.8854 18.0312 28.8594 18.0781C28.8385 18.1198 28.8177 18.1615 28.7969 18.2031C28.7344 18.3646 28.6771 18.4818 28.625 18.5547C28.5885 18.6068 28.5573 18.6667 28.5312 18.7344C28.4688 18.875 28.4245 18.9609 28.3984 18.9922C28.362 19.0339 28.3281 19.0833 28.2969 19.1406L28.1484 19.4688C28.0964 19.5781 28.0417 19.6771 27.9844 19.7656V19.8984C27.9844 19.9349 27.9792 19.9792 27.9688 20.0312C27.9479 20.0833 27.9141 20.138 27.8672 20.1953C27.8203 20.2526 27.7812 20.2865 27.75 20.2969C27.6458 20.2969 27.5729 20.3047 27.5312 20.3203C27.4948 20.3359 27.4531 20.3438 27.4062 20.3438C27.3542 20.3229 27.3021 20.2917 27.25 20.25C27.1979 20.2083 27.151 20.1667 27.1094 20.125C27.0521 20.0573 26.9974 19.9948 26.9453 19.9375C26.8932 19.8802 26.8438 19.8307 26.7969 19.7891C26.6979 19.7005 26.6458 19.5833 26.6406 19.4375C26.6302 19.3646 26.6406 19.2917 26.6719 19.2188C26.7031 19.1458 26.7604 19.099 26.8438 19.0781C26.9635 18.8333 27.0495 18.6302 27.1016 18.4688C27.1276 18.3854 27.1562 18.3021 27.1875 18.2188C27.224 18.1354 27.2604 18.0521 27.2969 17.9688C27.3177 17.9271 27.3359 17.888 27.3516 17.8516C27.3672 17.8151 27.3854 17.7708 27.4062 17.7188C27.4323 17.6615 27.4479 17.6172 27.4531 17.5859C27.4583 17.5547 27.474 17.5104 27.5 17.4531C27.5312 17.3698 27.5677 17.2917 27.6094 17.2188C27.651 17.1458 27.6979 17.0677 27.75 16.9844C27.8281 16.8438 27.9062 16.6901 27.9844 16.5234C28.0469 16.3932 28.1302 16.2448 28.2344 16.0781C28.2604 16.0052 28.2891 15.9505 28.3203 15.9141C28.3516 15.8776 28.3802 15.8229 28.4062 15.75C28.4271 15.6927 28.4297 15.638 28.4141 15.5859C28.3984 15.5443 28.3958 15.4948 28.4062 15.4375C28.4115 15.3802 28.4401 15.3255 28.4922 15.2734C28.5391 15.2266 28.5625 15.1719 28.5625 15.1094L28.7109 14.875C28.737 14.8385 28.7604 14.8021 28.7812 14.7656C28.8073 14.724 28.8333 14.6823 28.8594 14.6406C28.9062 14.5573 28.9401 14.487 28.9609 14.4297C28.9766 14.388 29 14.3385 29.0312 14.2812C29.0781 14.2083 29.1042 14.1562 29.1094 14.125C29.1406 14.0417 29.1719 13.9635 29.2031 13.8906C29.2344 13.8177 29.276 13.7552 29.3281 13.7031C29.349 13.599 29.3828 13.513 29.4297 13.4453C29.4766 13.3776 29.526 13.3073 29.5781 13.2344C29.6198 13.0938 29.6745 12.9661 29.7422 12.8516C29.7786 12.7943 29.8099 12.7344 29.8359 12.6719C29.8672 12.6094 29.8958 12.5469 29.9219 12.4844C29.974 12.375 30.0234 12.2292 30.0703 12.0469C30.1172 11.8646 30.1667 11.7188 30.2188 11.6094C30.3542 11.3646 30.4792 11.1224 30.5938 10.8828C30.651 10.763 30.7083 10.6432 30.7656 10.5234C30.8281 10.3984 30.8906 10.276 30.9531 10.1562C30.8802 10.1562 30.8047 10.1562 30.7266 10.1562C30.6484 10.1562 30.5677 10.1589 30.4844 10.1641C30.3177 10.1745 30.1719 10.1667 30.0469 10.1406C29.9948 10.1406 29.9609 10.1484 29.9453 10.1641C29.9297 10.1797 29.8906 10.1823 29.8281 10.1719C29.7969 10.1719 29.7552 10.1667 29.7031 10.1562C29.651 10.1458 29.6042 10.1406 29.5625 10.1406C29.4635 10.1302 29.362 10.1432 29.2578 10.1797C29.2005 10.2005 29.1432 10.2188 29.0859 10.2344C29.0339 10.2448 28.9844 10.2552 28.9375 10.2656C28.7969 10.2917 28.7161 10.3255 28.6953 10.3672C28.6745 10.4089 28.6094 10.4427 28.5 10.4688C28.4531 10.4896 28.3984 10.4948 28.3359 10.4844C28.2839 10.474 28.2292 10.4896 28.1719 10.5312C28.0573 10.5104 27.9557 10.4557 27.8672 10.3672C27.7786 10.2786 27.7031 10.1823 27.6406 10.0781C27.6198 10.0365 27.5885 10.0208 27.5469 10.0312C27.5 10.0417 27.474 10.0208 27.4688 9.96875C27.4479 9.88542 27.4479 9.80208 27.4688 9.71875C27.474 9.69271 27.4896 9.66667 27.5156 9.64062C27.5365 9.61979 27.5469 9.59375 27.5469 9.5625C27.6354 9.53646 27.7109 9.52083 27.7734 9.51562C27.8359 9.51042 27.8958 9.47917 27.9531 9.42188C28.125 9.39062 28.2682 9.35938 28.3828 9.32812C28.4401 9.3125 28.5026 9.29688 28.5703 9.28125C28.6432 9.26042 28.724 9.23958 28.8125 9.21875C28.9167 9.16146 28.9714 9.13802 28.9766 9.14844C28.9818 9.15365 28.9948 9.15625 29.0156 9.15625L29.375 9.07812C29.5104 9.04688 29.651 9.01562 29.7969 8.98438C29.9427 8.96354 30.0599 8.95052 30.1484 8.94531C30.237 8.9401 30.3646 8.94271 30.5312 8.95312C30.7188 8.95833 30.9062 8.95052 31.0938 8.92969L31.625 8.85938C31.6615 8.84896 31.6927 8.84115 31.7188 8.83594C31.75 8.83073 31.776 8.82552 31.7969 8.82031L31.9062 8.79688C31.9375 8.79167 31.9661 8.78906 31.9922 8.78906C32.0234 8.78385 32.0521 8.78125 32.0781 8.78125C32.1302 8.78125 32.1719 8.76042 32.2031 8.71875C32.401 8.67708 32.5833 8.64062 32.75 8.60938C32.9167 8.57812 33.0781 8.54948 33.2344 8.52344C33.3542 8.5026 33.5156 8.47396 33.7188 8.4375C33.9271 8.39583 34.1094 8.36458 34.2656 8.34375C34.4375 8.32292 34.5729 8.29948 34.6719 8.27344C34.7812 8.2474 34.9323 8.24479 35.125 8.26562C35.2083 8.27604 35.2708 8.28125 35.3125 8.28125C35.3438 8.28125 35.3776 8.28385 35.4141 8.28906C35.4505 8.28906 35.4896 8.29167 35.5312 8.29688C35.5573 8.30208 35.5885 8.3099 35.625 8.32031C35.6615 8.33073 35.7005 8.34115 35.7422 8.35156C35.8359 8.3776 35.9167 8.375 35.9844 8.34375ZM36.5938 18.7656C36.6354 18.7083 36.6667 18.6693 36.6875 18.6484C36.7135 18.6224 36.7448 18.599 36.7812 18.5781C36.9115 18.3021 37.0807 18.0833 37.2891 17.9219C37.5026 17.7604 37.7292 17.5781 37.9688 17.375C38.0208 17.375 38.0651 17.3568 38.1016 17.3203C38.138 17.2839 38.1823 17.2552 38.2344 17.2344C38.2969 17.1771 38.3568 17.1302 38.4141 17.0938C38.4609 17.0625 38.5 17.0208 38.5312 16.9688C38.651 16.9115 38.763 16.8333 38.8672 16.7344C38.9766 16.6354 39.0833 16.5469 39.1875 16.4688C39.2708 16.4479 39.3594 16.4583 39.4531 16.5C39.4948 16.5833 39.5104 16.6719 39.5 16.7656C39.4896 16.8594 39.4375 16.9115 39.3438 16.9219C39.3125 16.9531 39.2786 16.9844 39.2422 17.0156C39.2057 17.0469 39.1615 17.0677 39.1094 17.0781C39.0052 17.099 38.9375 17.1406 38.9062 17.2031C38.901 17.3021 38.888 17.362 38.8672 17.3828C38.8464 17.4036 38.8333 17.4219 38.8281 17.4375C38.7135 17.6302 38.5859 17.7969 38.4453 17.9375C38.3047 18.0729 38.1719 18.2396 38.0469 18.4375C37.9896 18.474 37.9427 18.5312 37.9062 18.6094C37.7188 18.7135 37.5807 18.7943 37.4922 18.8516C37.4036 18.9089 37.3229 18.9792 37.25 19.0625C37.1875 19.099 37.1562 19.1302 37.1562 19.1562C37.1562 19.1771 37.1458 19.1979 37.125 19.2188C37.0208 19.3073 36.9609 19.3724 36.9453 19.4141C36.9297 19.4557 36.9062 19.4896 36.875 19.5156C36.8229 19.5521 36.776 19.5885 36.7344 19.625C36.6979 19.6562 36.6667 19.6849 36.6406 19.7109C36.5781 19.7734 36.5104 19.8177 36.4375 19.8438C36.349 19.9167 36.2188 20.0026 36.0469 20.1016C35.875 20.2057 35.6979 20.2839 35.5156 20.3359C35.3333 20.3932 35.1823 20.3958 35.0625 20.3438L34.9531 20.2578C34.9323 20.2422 34.8958 20.2188 34.8438 20.1875C34.776 20.1042 34.7005 20.0339 34.6172 19.9766C34.5443 19.9245 34.474 19.849 34.4062 19.75C34.3281 19.6406 34.2786 19.5286 34.2578 19.4141C34.237 19.2943 34.1979 19.1771 34.1406 19.0625C34.1146 18.7917 34.1354 18.5677 34.2031 18.3906C34.2604 18.2135 34.3229 18.0495 34.3906 17.8984C34.4583 17.7422 34.5339 17.599 34.6172 17.4688C34.7786 17.2188 34.8906 16.9219 34.9531 16.5781C34.8385 16.4635 34.7734 16.3568 34.7578 16.2578C34.7526 16.2057 34.7422 16.1458 34.7266 16.0781C34.7109 16.0104 34.6927 15.9323 34.6719 15.8438C34.401 16.0208 34.151 16.2448 33.9219 16.5156C33.6927 16.7865 33.4896 17.0625 33.3125 17.3438L33.125 17.6875C33.0729 17.7865 33.0104 17.8802 32.9375 17.9688C32.8854 18.0208 32.8594 18.0547 32.8594 18.0703C32.8594 18.0859 32.849 18.1042 32.8281 18.125C32.7865 18.1771 32.7526 18.2214 32.7266 18.2578C32.7005 18.2943 32.6823 18.3229 32.6719 18.3438C32.6615 18.3646 32.651 18.3854 32.6406 18.4062C32.6302 18.4219 32.6198 18.4375 32.6094 18.4531C32.5781 18.4948 32.5521 18.526 32.5312 18.5469C32.5104 18.5677 32.4844 18.599 32.4531 18.6406C32.3073 18.849 32.1745 19.0443 32.0547 19.2266L31.6875 19.7812C31.6302 19.8698 31.5833 19.9583 31.5469 20.0469C31.5104 20.1406 31.4583 20.224 31.3906 20.2969C31.2865 20.3073 31.2266 20.2917 31.2109 20.25C31.1953 20.2083 31.1979 20.1719 31.2188 20.1406C31.0938 20.0573 31.0234 19.8958 31.0078 19.6562C30.9922 19.4167 31.0156 19.224 31.0781 19.0781C31.0469 18.9844 31.0365 18.9323 31.0469 18.9219C31.0573 18.9115 31.0625 18.8958 31.0625 18.875C31.1979 18.6875 31.3359 18.5 31.4766 18.3125C31.6172 18.125 31.7656 17.9479 31.9219 17.7812C31.9479 17.7448 31.974 17.7083 32 17.6719C32.026 17.6354 32.0495 17.599 32.0703 17.5625C32.1224 17.4844 32.1771 17.4167 32.2344 17.3594C32.3229 17.2083 32.4297 17.0521 32.5547 16.8906C32.6797 16.7344 32.7812 16.5729 32.8594 16.4062C32.9167 16.349 32.9557 16.2917 32.9766 16.2344C33.0026 16.1719 33.0469 16.1198 33.1094 16.0781C33.1458 16.0156 33.1771 15.9557 33.2031 15.8984C33.2344 15.8359 33.2604 15.776 33.2812 15.7188C33.3125 15.6198 33.3698 15.5208 33.4531 15.4219C33.474 15.349 33.5 15.2917 33.5312 15.25C33.5625 15.2083 33.6042 15.1615 33.6562 15.1094C33.6615 15.0625 33.6901 15.0182 33.7422 14.9766C33.7943 14.9349 33.8333 14.8906 33.8594 14.8438C33.8854 14.7708 33.9115 14.724 33.9375 14.7031C33.9688 14.6771 33.9844 14.6406 33.9844 14.5938C34.0365 14.5417 34.0885 14.487 34.1406 14.4297C34.1927 14.3724 34.2396 14.3021 34.2812 14.2188C34.4271 14.1354 34.5286 14.0938 34.5859 14.0938C34.6432 14.0938 34.6875 14.0677 34.7188 14.0156C34.7604 14.0156 34.8047 14.0156 34.8516 14.0156C34.9036 14.0156 34.9583 14.013 35.0156 14.0078C35.1354 13.9974 35.1979 14.0365 35.2031 14.125C35.2083 14.1458 35.2083 14.1719 35.2031 14.2031C35.1979 14.2188 35.1927 14.2344 35.1875 14.25C35.1823 14.2656 35.1771 14.2812 35.1719 14.2969C35.1771 14.3906 35.1771 14.4401 35.1719 14.4453C35.1615 14.4557 35.1562 14.4635 35.1562 14.4688C35.1458 14.5104 35.1432 14.5469 35.1484 14.5781C35.1536 14.6042 35.1562 14.651 35.1562 14.7188C35.151 14.7604 35.1458 14.7969 35.1406 14.8281C35.1354 14.8594 35.1302 14.888 35.125 14.9141C35.1146 14.9661 35.1354 15.026 35.1875 15.0938C35.2135 15.1302 35.2448 15.1589 35.2812 15.1797C35.3177 15.2005 35.3542 15.2344 35.3906 15.2812C35.4167 15.3073 35.4349 15.3385 35.4453 15.375C35.4557 15.4115 35.474 15.4427 35.5 15.4688C35.5208 15.4948 35.5521 15.5208 35.5938 15.5469C35.6354 15.5729 35.6667 15.6094 35.6875 15.6562C35.7448 15.6979 35.763 15.724 35.7422 15.7344C35.7266 15.7448 35.75 15.7656 35.8125 15.7969C35.9323 15.9479 36.0208 16.1094 36.0781 16.2812C36.1458 16.4115 36.2031 16.5156 36.25 16.5938C36.3021 16.6771 36.3021 16.7604 36.25 16.8438C36.2188 16.875 36.1823 16.9375 36.1406 17.0312C36.0938 17.0781 36.0521 17.1302 36.0156 17.1875C35.9948 17.224 35.9792 17.263 35.9688 17.3047C35.9635 17.3411 35.9479 17.375 35.9219 17.4062C35.8281 17.5573 35.7318 17.6927 35.6328 17.8125C35.5339 17.9323 35.4479 18.0625 35.375 18.2031C35.3802 18.5 35.4375 18.7188 35.5469 18.8594C35.6719 19.0052 35.75 19.0781 35.7812 19.0781C35.849 19.0885 35.9219 19.0677 36 19.0156L36.2031 18.8906C36.224 18.8802 36.2422 18.8698 36.2578 18.8594C36.2786 18.849 36.2969 18.8385 36.3125 18.8281C36.3438 18.8073 36.3802 18.7917 36.4219 18.7812C36.5312 18.7448 36.5833 18.7318 36.5781 18.7422C36.5729 18.7578 36.5781 18.7656 36.5938 18.7656ZM42.7344 15.6562L42.7188 15.7812C42.7292 15.8177 42.7188 15.8802 42.6875 15.9688C42.6354 16.0312 42.6042 16.099 42.5938 16.1719C42.5729 16.2135 42.5547 16.25 42.5391 16.2812C42.5234 16.3125 42.5104 16.3542 42.5 16.4062C42.4792 16.4688 42.4714 16.5417 42.4766 16.625C42.4818 16.6667 42.4818 16.7083 42.4766 16.75C42.4766 16.7865 42.474 16.8229 42.4688 16.8594C42.4479 16.974 42.4323 17.0859 42.4219 17.1953C42.4115 17.3047 42.401 17.4167 42.3906 17.5312C42.3906 17.6458 42.3802 17.776 42.3594 17.9219C42.3385 18.0677 42.3177 18.1979 42.2969 18.3125C42.3438 18.3958 42.3698 18.474 42.375 18.5469C42.3802 18.625 42.4167 18.6927 42.4844 18.75C42.6927 18.7188 42.8594 18.6693 42.9844 18.6016C43.1094 18.5339 43.2292 18.4375 43.3438 18.3125C43.4271 18.276 43.4922 18.2396 43.5391 18.2031C43.5807 18.1667 43.6406 18.125 43.7188 18.0781L43.8438 17.9531C43.9688 17.8854 44.0391 17.8438 44.0547 17.8281C44.0651 17.8177 44.0781 17.8073 44.0938 17.7969C44.1146 17.7865 44.1354 17.776 44.1562 17.7656C44.3333 17.651 44.4688 17.5312 44.5625 17.4062C44.6406 17.3438 44.7057 17.2786 44.7578 17.2109C44.7995 17.1536 44.8802 17.099 45 17.0469C45.0677 16.9635 45.1432 16.8932 45.2266 16.8359C45.3099 16.7786 45.3854 16.7083 45.4531 16.625C45.5104 16.625 45.5521 16.6354 45.5781 16.6562C45.5938 16.6667 45.6094 16.6771 45.625 16.6875C45.6458 16.6979 45.6667 16.7083 45.6875 16.7188C45.7188 16.8021 45.724 16.888 45.7031 16.9766C45.6823 17.0651 45.6458 17.1458 45.5938 17.2188C45.5417 17.2865 45.5156 17.3281 45.5156 17.3438C45.5156 17.3542 45.5104 17.3646 45.5 17.375C45.4688 17.4115 45.4297 17.4505 45.3828 17.4922C45.3359 17.5286 45.2969 17.5677 45.2656 17.6094C45.2135 17.7031 45.1719 17.75 45.1406 17.75C45.1094 17.75 45.0833 17.7604 45.0625 17.7812C44.9688 17.8385 44.9036 17.8802 44.8672 17.9062C44.8255 17.9427 44.7656 17.9844 44.6875 18.0312C44.5781 18.0885 44.5104 18.1302 44.4844 18.1562C44.4583 18.1823 44.4375 18.1979 44.4219 18.2031C44.2969 18.3438 44.1745 18.4609 44.0547 18.5547C43.9453 18.638 43.8281 18.7552 43.7031 18.9062C43.6615 18.9375 43.6198 18.9688 43.5781 19C43.5365 19.0312 43.5 19.0729 43.4688 19.125C43.375 19.1875 43.2995 19.25 43.2422 19.3125C43.1849 19.375 43.1198 19.4479 43.0469 19.5312C42.9844 19.5625 42.9167 19.6068 42.8438 19.6641C42.7552 19.7318 42.6771 19.7812 42.6094 19.8125C42.5833 19.8281 42.5391 19.8516 42.4766 19.8828C42.4245 19.9089 42.375 19.9219 42.3281 19.9219C42.2083 19.9427 42.0938 19.9323 41.9844 19.8906C41.8854 19.8542 41.7865 19.8229 41.6875 19.7969C41.6458 19.7344 41.5938 19.6823 41.5312 19.6406C41.4375 19.526 41.3698 19.3906 41.3281 19.2344C41.2865 19.0781 41.2448 18.9115 41.2031 18.7344C41.1094 18.7969 41.0312 18.8646 40.9688 18.9375C40.9062 19.0156 40.8125 19.0833 40.6875 19.1406C40.5833 19.2396 40.4766 19.3385 40.3672 19.4375C40.2578 19.5312 40.1432 19.6224 40.0234 19.7109C39.9089 19.7995 39.7917 19.8932 39.6719 19.9922C39.5521 20.0859 39.4323 20.1823 39.3125 20.2812C39.2292 20.3646 39.1719 20.3958 39.1406 20.375C39.0469 20.4896 38.8802 20.526 38.6406 20.4844C38.5573 20.4427 38.4635 20.4062 38.3594 20.375C38.2865 20.3542 38.2031 20.3229 38.1094 20.2812C37.9323 20.25 37.7839 20.1719 37.6641 20.0469C37.5443 19.9219 37.4427 19.776 37.3594 19.6094C37.3281 19.5208 37.3047 19.4427 37.2891 19.375C37.2839 19.3385 37.276 19.2995 37.2656 19.2578C37.2552 19.2161 37.2448 19.1719 37.2344 19.125C37.2292 19.0365 37.2135 18.9661 37.1875 18.9141C37.1667 18.8568 37.1667 18.8021 37.1875 18.75C37.1667 18.724 37.1615 18.6901 37.1719 18.6484C37.1823 18.5964 37.1875 18.5573 37.1875 18.5312C37.1771 18.3854 37.1901 18.2292 37.2266 18.0625C37.263 17.8958 37.3125 17.7448 37.375 17.6094C37.4062 17.5573 37.4479 17.5052 37.5 17.4531C37.526 17.4219 37.5417 17.3906 37.5469 17.3594C37.5521 17.3333 37.5677 17.3073 37.5938 17.2812C37.6198 17.25 37.651 17.2188 37.6875 17.1875C37.7396 17.1458 37.776 17.1146 37.7969 17.0938C37.8229 17.0573 37.849 17.0234 37.875 16.9922C37.9062 16.9557 37.9401 16.9245 37.9766 16.8984C38.013 16.8724 38.0469 16.8438 38.0781 16.8125C38.1094 16.7812 38.1406 16.75 38.1719 16.7188C38.2083 16.6823 38.237 16.6458 38.2578 16.6094C38.2839 16.5677 38.3229 16.5365 38.375 16.5156C38.4167 16.4427 38.4635 16.3828 38.5156 16.3359C38.5677 16.2891 38.625 16.2396 38.6875 16.1875C38.8646 15.974 39.0833 15.7917 39.3438 15.6406C39.6094 15.4896 39.8438 15.3229 40.0469 15.1406C40.1198 15.1094 40.1823 15.0729 40.2344 15.0312C40.2865 14.9896 40.3385 14.9479 40.3906 14.9062C40.5208 14.7917 40.6615 14.7552 40.8125 14.7969L41.2188 14.9062C41.3229 15 41.4245 15.0938 41.5234 15.1875C41.6224 15.2812 41.7083 15.3854 41.7812 15.5C41.8177 15.4948 41.8568 15.4922 41.8984 15.4922C41.9401 15.487 41.9844 15.487 42.0312 15.4922C42.125 15.5026 42.224 15.4948 42.3281 15.4688C42.3594 15.4688 42.3906 15.4609 42.4219 15.4453C42.4531 15.4297 42.4792 15.4219 42.5 15.4219C42.6562 15.474 42.7344 15.5521 42.7344 15.6562ZM40.6719 15.8906C40.3906 16.026 40.1354 16.1849 39.9062 16.3672C39.6771 16.5495 39.4583 16.7448 39.25 16.9531C39.224 16.9792 39.1953 17.0052 39.1641 17.0312C39.138 17.0521 39.112 17.0755 39.0859 17.1016C39.0599 17.1224 39.0339 17.1458 39.0078 17.1719C38.9818 17.1979 38.9583 17.224 38.9375 17.25C38.8958 17.3021 38.8568 17.3646 38.8203 17.4375C38.7839 17.5104 38.75 17.5781 38.7188 17.6406C38.7083 17.6615 38.6979 17.6823 38.6875 17.7031C38.6771 17.7188 38.6667 17.7318 38.6562 17.7422C38.6458 17.7526 38.6354 17.7656 38.625 17.7812C38.6146 17.7969 38.6042 17.8125 38.5938 17.8281C38.5729 17.8802 38.5651 17.9323 38.5703 17.9844C38.5755 18.0208 38.5781 18.0781 38.5781 18.1562V18.3125C38.5781 18.3438 38.5833 18.3958 38.5938 18.4688C38.625 18.5833 38.6406 18.6979 38.6406 18.8125C38.6406 18.8958 38.6484 18.9974 38.6641 19.1172C38.6797 19.237 38.7188 19.3177 38.7812 19.3594C38.849 19.401 38.9141 19.4115 38.9766 19.3906C39.0495 19.3646 39.1094 19.349 39.1562 19.3438C39.5208 19.0625 39.8646 18.7682 40.1875 18.4609C40.5104 18.1536 40.7969 17.8073 41.0469 17.4219C41.026 17.1667 41.0234 16.9036 41.0391 16.6328C41.0547 16.3776 41.0312 16.1406 40.9688 15.9219C40.9271 15.8958 40.8776 15.888 40.8203 15.8984C40.7786 15.9036 40.7292 15.901 40.6719 15.8906ZM46.6719 14.5938C46.7552 14.5729 46.8021 14.5703 46.8125 14.5859C46.8229 14.6016 46.8438 14.6094 46.875 14.6094C46.9167 14.6667 46.9219 14.75 46.8906 14.8594C46.8542 15.026 46.7812 15.1849 46.6719 15.3359C46.5625 15.487 46.4792 15.6354 46.4219 15.7812C46.3854 15.8542 46.3516 15.9193 46.3203 15.9766C46.2943 16.0286 46.2708 16.0755 46.25 16.1172C46.2292 16.1536 46.2083 16.1927 46.1875 16.2344C46.1719 16.276 46.1562 16.3177 46.1406 16.3594C46.0885 16.474 46.0365 16.6016 45.9844 16.7422C45.9323 16.8828 45.8802 17.026 45.8281 17.1719L45.7344 17.375C45.6823 17.4896 45.6406 17.5911 45.6094 17.6797C45.5781 17.7682 45.5573 17.8802 45.5469 18.0156V18.4375C45.5573 18.5104 45.5651 18.5859 45.5703 18.6641C45.5755 18.7422 45.5807 18.8229 45.5859 18.9062C45.5964 19.0781 45.6302 19.2188 45.6875 19.3281C45.8177 19.2656 45.9583 19.1589 46.1094 19.0078C46.1823 18.9349 46.25 18.8698 46.3125 18.8125C46.3802 18.75 46.4427 18.6979 46.5 18.6562C46.5729 18.5521 46.6536 18.4557 46.7422 18.3672C46.8359 18.2734 46.9115 18.1719 46.9688 18.0625C47.0938 17.9583 47.1771 17.8229 47.2188 17.6562C47.2708 17.599 47.3203 17.5339 47.3672 17.4609C47.3932 17.4245 47.4167 17.3906 47.4375 17.3594C47.4635 17.3229 47.4896 17.2865 47.5156 17.25C47.5938 17.1406 47.6615 17.0104 47.7188 16.8594C47.75 16.7708 47.763 16.6875 47.7578 16.6094C47.7526 16.5677 47.75 16.526 47.75 16.4844C47.75 16.4427 47.75 16.401 47.75 16.3594C47.7552 16.2708 47.7708 16.1823 47.7969 16.0938C47.8177 16.0208 47.8229 15.9375 47.8125 15.8438C47.8281 15.8177 47.8464 15.7734 47.8672 15.7109C47.888 15.6484 47.9062 15.599 47.9219 15.5625C47.9427 15.5104 47.9818 15.4531 48.0391 15.3906C48.0964 15.3281 48.151 15.2708 48.2031 15.2188C48.2396 15.1719 48.2734 15.125 48.3047 15.0781C48.3411 15.0312 48.375 14.9844 48.4062 14.9375C48.4635 14.849 48.5417 14.776 48.6406 14.7188L48.8281 14.6406C48.9062 14.6042 48.9688 14.5833 49.0156 14.5781C49.0938 14.5677 49.1979 14.5443 49.3281 14.5078C49.4635 14.4661 49.5677 14.4583 49.6406 14.4844C49.6823 14.4896 49.7214 14.513 49.7578 14.5547C49.7943 14.5859 49.8385 14.5833 49.8906 14.5469C49.974 14.6354 50.0156 14.7135 50.0156 14.7812C50.0156 14.8438 49.9948 14.9115 49.9531 14.9844C49.8854 15.0833 49.849 15.1432 49.8438 15.1641C49.8385 15.1745 49.8333 15.1875 49.8281 15.2031C49.8229 15.2135 49.8177 15.224 49.8125 15.2344C49.7188 15.3906 49.625 15.5625 49.5312 15.75C49.4375 15.9375 49.3594 16.1146 49.2969 16.2812C49.401 16.3333 49.5391 16.3568 49.7109 16.3516C49.8828 16.3464 50.0365 16.3281 50.1719 16.2969C50.1927 16.2917 50.2109 16.2865 50.2266 16.2812C50.2474 16.276 50.2682 16.2708 50.2891 16.2656C50.3099 16.2604 50.3281 16.2552 50.3438 16.25C50.3646 16.2448 50.3854 16.2396 50.4062 16.2344C50.474 16.2135 50.5755 16.1953 50.7109 16.1797C50.8203 16.1641 50.9219 16.1354 51.0156 16.0938C51.1354 16.0312 51.2083 16 51.2344 16C51.2708 16 51.3073 15.9896 51.3438 15.9688C51.4427 15.9427 51.5339 15.9167 51.6172 15.8906C51.7005 15.8646 51.776 15.8385 51.8438 15.8125C51.8802 15.8021 51.9167 15.7917 51.9531 15.7812C51.9896 15.7656 52.026 15.7474 52.0625 15.7266C52.1354 15.6849 52.2031 15.6771 52.2656 15.7031C52.2865 15.724 52.2943 15.7604 52.2891 15.8125C52.2839 15.8594 52.2969 15.9115 52.3281 15.9688C52.2448 16.0365 52.1823 16.0677 52.1406 16.0625C52.0573 16.1042 51.9714 16.1432 51.8828 16.1797C51.7943 16.2161 51.7005 16.2526 51.6016 16.2891L51.0469 16.4844C50.9219 16.5417 50.8385 16.5651 50.7969 16.5547C50.7604 16.5443 50.7135 16.5521 50.6562 16.5781C50.4844 16.6562 50.3359 16.7135 50.2109 16.75C50.1068 16.7812 50.0156 16.8177 49.9375 16.8594C49.8958 16.8906 49.8672 16.9141 49.8516 16.9297C49.8255 16.9557 49.7917 16.974 49.75 16.9844C49.5729 17.0156 49.4219 17.0286 49.2969 17.0234C49.1667 17.0182 49.0312 17.0521 48.8906 17.125C48.8594 17.1875 48.8177 17.2578 48.7656 17.3359C48.7135 17.4141 48.6562 17.4792 48.5938 17.5312C48.5417 17.6354 48.487 17.724 48.4297 17.7969C48.3724 17.8698 48.3073 17.9479 48.2344 18.0312C48.1406 18.1146 48.0469 18.2031 47.9531 18.2969C47.8594 18.3906 47.7708 18.4792 47.6875 18.5625C47.5417 18.8021 47.3724 19.0234 47.1797 19.2266C46.987 19.4297 46.7865 19.6302 46.5781 19.8281C46.526 19.8333 46.4766 19.8568 46.4297 19.8984C46.3932 19.9297 46.3438 19.9583 46.2812 19.9844C46.2135 20.0052 46.1589 20.0208 46.1172 20.0312C46.0807 20.0469 46.0573 20.0573 46.0469 20.0625C46.026 20.0677 45.9948 20.0833 45.9531 20.1094C45.8802 20.1406 45.8255 20.1693 45.7891 20.1953C45.7578 20.2161 45.7344 20.2344 45.7188 20.25C45.6927 20.2708 45.6615 20.2812 45.625 20.2812C45.599 20.2812 45.5729 20.3021 45.5469 20.3438C45.4167 20.3177 45.3385 20.3333 45.3125 20.3906C45.2708 20.3906 45.2292 20.3958 45.1875 20.4062C45.1562 20.4167 45.1198 20.4167 45.0781 20.4062C45.0469 20.3802 45.0234 20.3568 45.0078 20.3359C44.987 20.3047 44.9688 20.2812 44.9531 20.2656C44.7969 20.2031 44.7031 20.1354 44.6719 20.0625C44.6354 19.9844 44.5885 19.9271 44.5312 19.8906C44.4844 19.7812 44.4557 19.6562 44.4453 19.5156C44.4401 19.4531 44.4349 19.3906 44.4297 19.3281C44.4245 19.2604 44.4167 19.1927 44.4062 19.125C44.401 19.1042 44.3958 19.0859 44.3906 19.0703C44.3854 19.0495 44.3802 19.0286 44.375 19.0078C44.3698 18.987 44.3646 18.9688 44.3594 18.9531C44.3542 18.9323 44.349 18.9115 44.3438 18.8906C44.3229 18.8073 44.3151 18.724 44.3203 18.6406C44.3255 18.5625 44.3125 18.4792 44.2812 18.3906C44.3333 18.224 44.3385 18.0625 44.2969 17.9062C44.3177 17.8333 44.3438 17.737 44.375 17.6172C44.4062 17.4974 44.4271 17.3958 44.4375 17.3125C44.4635 17.0938 44.5026 16.9115 44.5547 16.7656C44.612 16.6198 44.6979 16.4375 44.8125 16.2188C44.8542 16.125 44.901 16.0312 44.9531 15.9375C44.9792 15.8906 45.0052 15.8438 45.0312 15.7969C45.0573 15.7448 45.0833 15.6927 45.1094 15.6406C45.1354 15.5885 45.1562 15.5469 45.1719 15.5156C45.1927 15.4792 45.2057 15.4531 45.2109 15.4375C45.2318 15.401 45.2656 15.3438 45.3125 15.2656L45.3906 15.125C45.4219 15.0729 45.4583 15.026 45.5 14.9844C45.5833 14.901 45.6615 14.8359 45.7344 14.7891C45.8073 14.7422 45.8958 14.6927 46 14.6406C46.099 14.6615 46.2266 14.6432 46.3828 14.5859C46.5391 14.5286 46.6354 14.5312 46.6719 14.5938ZM54.0156 12.1719L54.1719 12.2188C54.1927 12.2448 54.2031 12.276 54.2031 12.3125C54.2031 12.3385 54.2188 12.3646 54.25 12.3906C54.2292 12.4844 54.2109 12.5807 54.1953 12.6797C54.1797 12.7786 54.1719 12.875 54.1719 12.9688C54.1719 13.0052 54.1849 13.0417 54.2109 13.0781C54.237 13.1146 54.25 13.1458 54.25 13.1719C54.1979 13.2917 54.1589 13.3646 54.1328 13.3906C54.1068 13.4167 54.0938 13.4427 54.0938 13.4688C54.0417 13.4896 54.0026 13.5208 53.9766 13.5625C53.9505 13.6042 53.9062 13.625 53.8438 13.625C53.8229 13.6562 53.7995 13.6797 53.7734 13.6953C53.7422 13.7161 53.724 13.7448 53.7188 13.7812C53.5469 13.8542 53.3594 13.849 53.1562 13.7656C53.099 13.6667 53.026 13.599 52.9375 13.5625C52.8021 13.3646 52.7969 13.1302 52.9219 12.8594C52.9427 12.8073 52.9661 12.7526 52.9922 12.6953C53.0182 12.638 53.0417 12.599 53.0625 12.5781C53.1719 12.5 53.2552 12.4479 53.3125 12.4219C53.3333 12.4115 53.3542 12.401 53.375 12.3906C53.401 12.375 53.4245 12.3594 53.4453 12.3438C53.4818 12.3177 53.5365 12.2917 53.6094 12.2656C53.6406 12.2552 53.6693 12.25 53.6953 12.25C53.737 12.25 53.776 12.2396 53.8125 12.2188C53.8333 12.2135 53.8516 12.2083 53.8672 12.2031C53.888 12.1979 53.9062 12.1927 53.9219 12.1875C53.9635 12.1771 53.9948 12.1719 54.0156 12.1719ZM51.6719 19.0938L51.75 19.125C51.8438 19.0833 51.9583 19.0677 52.0938 19.0781C52.2344 19.0885 52.3438 19.0677 52.4219 19.0156C52.474 18.974 52.5104 18.9427 52.5312 18.9219C52.5625 18.8906 52.599 18.8802 52.6406 18.8906C52.8073 18.8281 52.9479 18.7656 53.0625 18.7031C53.1823 18.6406 53.3073 18.5938 53.4375 18.5625C53.5208 18.5312 53.5938 18.4844 53.6562 18.4219C53.8698 18.3542 54.0495 18.2578 54.1953 18.1328C54.3464 18.0078 54.5104 17.875 54.6875 17.7344C54.8333 17.651 54.9557 17.5781 55.0547 17.5156C55.1536 17.4531 55.2604 17.375 55.375 17.2812C55.401 17.224 55.4297 17.1849 55.4609 17.1641C55.487 17.1484 55.5156 17.1146 55.5469 17.0625C55.7344 17.0625 55.8385 17.1354 55.8594 17.2812C55.8073 17.3958 55.737 17.4896 55.6484 17.5625C55.5547 17.6406 55.474 17.724 55.4062 17.8125C55.3229 17.8646 55.2552 17.9115 55.2031 17.9531C55.151 17.9948 55.099 18.0573 55.0469 18.1406C55.0417 18.1406 55.0104 18.1641 54.9531 18.2109C54.901 18.2578 54.8698 18.2812 54.8594 18.2812C54.776 18.3802 54.7135 18.4401 54.6719 18.4609C54.6302 18.4818 54.5573 18.5365 54.4531 18.625C54.3854 18.7396 54.2917 18.8333 54.1719 18.9062C53.9479 19.1198 53.7109 19.2995 53.4609 19.4453C53.3307 19.5182 53.2083 19.5938 53.0938 19.6719C52.9792 19.7448 52.8698 19.8177 52.7656 19.8906C52.7135 19.9219 52.6771 19.9505 52.6562 19.9766C52.6354 20.0026 52.599 20.0365 52.5469 20.0781C52.4948 20.1198 52.4141 20.1615 52.3047 20.2031C52.1953 20.2448 52.099 20.2812 52.0156 20.3125C51.9479 20.3542 51.8906 20.3854 51.8438 20.4062C51.6094 20.4167 51.4323 20.3802 51.3125 20.2969C51.1771 20.224 51.0729 20.1667 51 20.125C50.9271 20.0833 50.8646 20.0156 50.8125 19.9219C50.6927 19.8646 50.6224 19.7682 50.6016 19.6328C50.5911 19.5599 50.5781 19.4896 50.5625 19.4219C50.5469 19.3542 50.5312 19.2865 50.5156 19.2188C50.5052 19.1667 50.4948 19.1068 50.4844 19.0391C50.474 18.9714 50.474 18.901 50.4844 18.8281C50.5104 18.7083 50.526 18.5859 50.5312 18.4609C50.5365 18.3464 50.5625 18.2344 50.6094 18.125C50.6562 18.0208 50.6849 17.9062 50.6953 17.7812C50.7057 17.6562 50.7344 17.5417 50.7812 17.4375C50.849 17.3333 50.8776 17.276 50.8672 17.2656C50.862 17.2604 50.8646 17.2448 50.875 17.2188L50.9453 17.125C50.9609 17.1042 50.9844 17.0677 51.0156 17.0156L51.1094 16.7812C51.1562 16.6927 51.2031 16.6198 51.25 16.5625C51.2969 16.5 51.3385 16.4115 51.375 16.2969C51.401 16.224 51.4297 16.1667 51.4609 16.125C51.4818 16.099 51.5 16.0729 51.5156 16.0469C51.5365 16.0156 51.5573 15.9844 51.5781 15.9531C51.6042 15.901 51.6302 15.8359 51.6562 15.7578C51.6667 15.7214 51.6771 15.6875 51.6875 15.6562C51.7031 15.6198 51.7188 15.5833 51.7344 15.5469C51.7656 15.4635 51.8047 15.3802 51.8516 15.2969C51.8984 15.2135 51.9479 15.1302 52 15.0469C52.0417 14.9635 52.0781 14.901 52.1094 14.8594C52.1406 14.8177 52.2031 14.7917 52.2969 14.7812C52.3438 14.7708 52.3906 14.7734 52.4375 14.7891C52.4948 14.8047 52.5469 14.8021 52.5938 14.7812C52.7292 14.7188 52.8229 14.6875 52.875 14.6875C52.9271 14.6875 52.9635 14.6719 52.9844 14.6406C53.0938 14.6458 53.1771 14.6823 53.2344 14.75C53.2917 14.8125 53.3542 14.875 53.4219 14.9375C53.3594 15.2396 53.2891 15.4714 53.2109 15.6328C53.1328 15.7943 53.0469 15.9635 52.9531 16.1406C52.901 16.224 52.849 16.3177 52.7969 16.4219C52.7448 16.526 52.6979 16.6198 52.6562 16.7031C52.6042 16.8177 52.5495 16.9193 52.4922 17.0078C52.4245 17.112 52.375 17.2135 52.3438 17.3125L52.2734 17.4609C52.2422 17.5234 52.2188 17.5729 52.2031 17.6094C52.1927 17.6458 52.1797 17.6823 52.1641 17.7188C52.1536 17.75 52.138 17.7786 52.1172 17.8047C52.0964 17.8307 52.0781 17.8594 52.0625 17.8906C52.0469 17.9167 52.0312 17.9427 52.0156 17.9688C51.9844 18.0312 51.9531 18.0938 51.9219 18.1562C51.8906 18.2188 51.8646 18.2865 51.8438 18.3594C51.7917 18.474 51.7604 18.5495 51.75 18.5859C51.7448 18.5964 51.7396 18.6094 51.7344 18.625C51.7292 18.6354 51.724 18.6458 51.7188 18.6562C51.6979 18.7708 51.6667 18.8646 51.625 18.9375C51.5833 19.0104 51.599 19.0625 51.6719 19.0938ZM59.7656 16.3125C59.8698 16.3385 59.9453 16.375 59.9922 16.4219C60.0286 16.4583 60.0469 16.5 60.0469 16.5469C59.9635 16.6615 59.9141 16.737 59.8984 16.7734C59.8828 16.8099 59.849 16.8385 59.7969 16.8594C59.7292 16.9635 59.6562 17.0625 59.5781 17.1562C59.5052 17.2448 59.4245 17.3307 59.3359 17.4141C59.1745 17.5703 59.0156 17.75 58.8594 17.9531C58.7917 18.0208 58.7448 18.0729 58.7188 18.1094C58.6927 18.1458 58.6458 18.1979 58.5781 18.2656C58.4531 18.3542 58.349 18.4453 58.2656 18.5391C58.2188 18.5911 58.1693 18.6406 58.1172 18.6875C58.0703 18.7292 58.0208 18.7708 57.9688 18.8125C57.9427 18.8333 57.9167 18.8542 57.8906 18.875C57.8698 18.8906 57.8464 18.9089 57.8203 18.9297C57.7995 18.9505 57.776 18.9714 57.75 18.9922C57.724 19.013 57.6979 19.0365 57.6719 19.0625C57.6302 19.1042 57.5833 19.1458 57.5312 19.1875C57.5104 19.2031 57.487 19.2214 57.4609 19.2422C57.4401 19.2578 57.4167 19.276 57.3906 19.2969C57.3281 19.3698 57.2656 19.4427 57.2031 19.5156C57.1406 19.5885 57.0781 19.6667 57.0156 19.75C56.9062 19.8021 56.8021 19.8646 56.7031 19.9375C56.6094 20.0052 56.5 20.0677 56.375 20.125C56.3229 20.1562 56.2734 20.2057 56.2266 20.2734C56.1849 20.3359 56.125 20.3802 56.0469 20.4062C55.9635 20.4375 55.875 20.4453 55.7812 20.4297C55.6875 20.4141 55.6094 20.3906 55.5469 20.3594C55.4792 20.3125 55.4375 20.2865 55.4219 20.2812C55.3802 20.2708 55.3542 20.2656 55.3438 20.2656C55.2448 20.125 55.1771 19.9766 55.1406 19.8203C55.1198 19.737 55.0964 19.6536 55.0703 19.5703C55.0495 19.487 55.026 19.401 55 19.3125C54.9792 19.2604 54.9635 19.2057 54.9531 19.1484C54.9427 19.0911 54.9323 19.026 54.9219 18.9531L54.8984 18.8281C54.8932 18.8073 54.888 18.7865 54.8828 18.7656C54.8776 18.7396 54.8698 18.7135 54.8594 18.6875C54.8385 18.6354 54.8177 18.5807 54.7969 18.5234C54.776 18.4661 54.7604 18.4062 54.75 18.3438C54.7292 18.2188 54.7214 18.0964 54.7266 17.9766C54.7318 17.8568 54.7448 17.7396 54.7656 17.625C54.8281 17.2812 54.9193 16.9531 55.0391 16.6406C55.1589 16.3281 55.2812 16.0312 55.4062 15.75C55.4323 15.6198 55.4609 15.5208 55.4922 15.4531C55.5234 15.3854 55.5573 15.2917 55.5938 15.1719C55.6406 15.1146 55.6771 15.0312 55.7031 14.9219C55.7135 14.875 55.724 14.8281 55.7344 14.7812C55.75 14.7344 55.7656 14.6875 55.7812 14.6406C55.7969 14.599 55.8151 14.5573 55.8359 14.5156C55.8568 14.4688 55.8776 14.4193 55.8984 14.3672C55.9401 14.2734 55.974 14.1771 56 14.0781C56.0365 13.9583 56.0651 13.8542 56.0859 13.7656C56.0964 13.7135 56.1094 13.6641 56.125 13.6172C56.1458 13.5703 56.1667 13.526 56.1875 13.4844C56.2292 13.375 56.2682 13.2682 56.3047 13.1641C56.3464 13.0599 56.3854 12.9583 56.4219 12.8594C56.4583 12.7604 56.4948 12.6615 56.5312 12.5625C56.5729 12.4635 56.6146 12.3646 56.6562 12.2656C56.6667 12.2344 56.6771 12.2031 56.6875 12.1719C56.6979 12.1406 56.7083 12.1094 56.7188 12.0781C56.7396 12.0208 56.7708 11.9635 56.8125 11.9062C56.8385 11.8333 56.8646 11.7786 56.8906 11.7422C56.9323 11.6797 56.9635 11.6302 56.9844 11.5938C56.9844 11.5365 57.0026 11.4974 57.0391 11.4766C57.0651 11.4609 57.0938 11.4271 57.125 11.375C57.1823 11.2865 57.2214 11.2031 57.2422 11.125C57.263 11.0469 57.3021 10.9635 57.3594 10.875L57.5469 10.6406C57.5573 10.6198 57.5677 10.599 57.5781 10.5781C57.5885 10.5573 57.599 10.5365 57.6094 10.5156C57.6354 10.474 57.6667 10.4375 57.7031 10.4062C57.8229 10.2188 57.9479 10.0312 58.0781 9.84375L58.5 9.25C58.5938 9.10417 58.6979 8.96615 58.8125 8.83594C58.9271 8.70573 59.0469 8.57812 59.1719 8.45312C59.2135 8.40104 59.263 8.34375 59.3203 8.28125C59.3776 8.21875 59.4375 8.18229 59.5 8.17188C59.599 8.16146 59.7031 8.17188 59.8125 8.20312C59.8438 8.25521 59.8724 8.3099 59.8984 8.36719C59.9245 8.42448 59.9479 8.48958 59.9688 8.5625C59.9896 8.88542 59.9792 9.19792 59.9375 9.5C59.8958 9.80208 59.849 10.099 59.7969 10.3906C59.7865 10.4583 59.7839 10.5078 59.7891 10.5391C59.7943 10.5703 59.7917 10.6198 59.7812 10.6875C59.7604 10.75 59.7344 10.8307 59.7031 10.9297C59.6719 11.0286 59.6458 11.1198 59.625 11.2031C59.625 11.3438 59.5938 11.474 59.5312 11.5938C59.4688 11.7083 59.4271 11.8229 59.4062 11.9375C59.375 11.9583 59.3568 11.9922 59.3516 12.0391C59.3464 12.0859 59.3281 12.1198 59.2969 12.1406C59.2708 12.2604 59.237 12.3646 59.1953 12.4531C59.1484 12.5469 59.1094 12.6406 59.0781 12.7344C59 12.8438 58.9219 12.9505 58.8438 13.0547C58.7656 13.1589 58.6849 13.263 58.6016 13.3672C58.5182 13.4661 58.4375 13.5703 58.3594 13.6797C58.2865 13.7839 58.2135 13.8906 58.1406 14C57.9583 14.276 57.7682 14.5365 57.5703 14.7812C57.3724 15.026 57.1823 15.2865 57 15.5625C56.8542 15.6927 56.7396 15.8229 56.6562 15.9531C56.5677 16.0938 56.4479 16.224 56.2969 16.3438C56.2708 16.4479 56.2448 16.5573 56.2188 16.6719C56.1979 16.7865 56.1745 16.9036 56.1484 17.0234C56.1276 17.1432 56.1042 17.2656 56.0781 17.3906C56.0521 17.5156 56.026 17.6406 56 17.7656C55.9948 17.8333 55.9792 17.9036 55.9531 17.9766C55.9427 18.013 55.9323 18.0495 55.9219 18.0859C55.9115 18.1172 55.901 18.151 55.8906 18.1875C55.8698 18.2604 55.8646 18.349 55.875 18.4531C55.8802 18.5469 55.8646 18.6354 55.8281 18.7188C55.8438 18.7604 55.8568 18.8203 55.8672 18.8984C55.8724 18.9661 55.8906 19.026 55.9219 19.0781C55.9792 19.1719 56.0417 19.2188 56.1094 19.2188C56.1875 19.1771 56.2292 19.1589 56.2344 19.1641C56.2396 19.1693 56.2552 19.1667 56.2812 19.1562C56.3333 19.125 56.3854 19.0833 56.4375 19.0312C56.4896 18.9792 56.5365 18.9323 56.5781 18.8906C56.6354 18.8646 56.6745 18.8411 56.6953 18.8203C56.7109 18.8047 56.7396 18.7812 56.7812 18.75C56.8125 18.7292 56.8411 18.7135 56.8672 18.7031C56.8932 18.6927 56.9167 18.6771 56.9375 18.6562C57.0885 18.5 57.2292 18.3828 57.3594 18.3047C57.4948 18.2266 57.6042 18.1302 57.6875 18.0156L57.9688 17.8438C58.026 17.8125 58.0807 17.7682 58.1328 17.7109C58.1797 17.6536 58.2396 17.6094 58.3125 17.5781C58.3438 17.5365 58.3646 17.5104 58.375 17.5C58.3854 17.4896 58.4062 17.4635 58.4375 17.4219C58.5 17.3802 58.5625 17.3385 58.625 17.2969C58.6875 17.2552 58.7474 17.2135 58.8047 17.1719C58.862 17.1302 58.9219 17.0885 58.9844 17.0469C59.0521 17.0052 59.1198 16.9635 59.1875 16.9219C59.2083 16.8698 59.2422 16.8281 59.2891 16.7969C59.3359 16.7656 59.375 16.7344 59.4062 16.7031C59.4375 16.6719 59.4635 16.638 59.4844 16.6016C59.5104 16.5599 59.5469 16.5365 59.5938 16.5312C59.599 16.4844 59.6224 16.4479 59.6641 16.4219C59.7057 16.3958 59.7396 16.3594 59.7656 16.3125ZM58.9219 10.4844H58.9062C58.8125 10.5052 58.7474 10.5521 58.7109 10.625C58.6745 10.6979 58.6406 10.7812 58.6094 10.875C58.5885 10.9167 58.5677 10.9531 58.5469 10.9844C58.5312 11.0156 58.5182 11.0417 58.5078 11.0625C58.487 11.099 58.4792 11.1615 58.4844 11.25C58.3229 11.5156 58.1693 11.7891 58.0234 12.0703C57.8776 12.3464 57.737 12.6302 57.6016 12.9219C57.4714 13.2135 57.3385 13.5078 57.2031 13.8047C57.0677 14.0964 56.9323 14.3906 56.7969 14.6875C57.0104 14.474 57.2057 14.224 57.3828 13.9375C57.4714 13.7917 57.5625 13.6562 57.6562 13.5312C57.7552 13.4062 57.8542 13.2917 57.9531 13.1875C58.026 13.0104 58.1016 12.8385 58.1797 12.6719C58.263 12.5052 58.349 12.3464 58.4375 12.1953C58.6094 11.9036 58.7448 11.5573 58.8438 11.1562C58.8021 11.026 58.8073 10.9141 58.8594 10.8203C58.9115 10.7266 58.9323 10.6146 58.9219 10.4844ZM62.375 12.1719L62.5312 12.2188C62.5521 12.2448 62.5625 12.276 62.5625 12.3125C62.5625 12.3385 62.5781 12.3646 62.6094 12.3906C62.5885 12.4844 62.5703 12.5807 62.5547 12.6797C62.5391 12.7786 62.5312 12.875 62.5312 12.9688C62.5312 13.0052 62.5443 13.0417 62.5703 13.0781C62.5964 13.1146 62.6094 13.1458 62.6094 13.1719C62.5573 13.2917 62.5182 13.3646 62.4922 13.3906C62.4661 13.4167 62.4531 13.4427 62.4531 13.4688C62.401 13.4896 62.362 13.5208 62.3359 13.5625C62.3099 13.6042 62.2656 13.625 62.2031 13.625C62.1823 13.6562 62.1589 13.6797 62.1328 13.6953C62.1016 13.7161 62.0833 13.7448 62.0781 13.7812C61.9062 13.8542 61.7188 13.849 61.5156 13.7656C61.4583 13.6667 61.3854 13.599 61.2969 13.5625C61.1615 13.3646 61.1562 13.1302 61.2812 12.8594C61.3021 12.8073 61.3255 12.7526 61.3516 12.6953C61.3776 12.638 61.401 12.599 61.4219 12.5781C61.5312 12.5 61.6146 12.4479 61.6719 12.4219C61.6927 12.4115 61.7135 12.401 61.7344 12.3906C61.7604 12.375 61.7839 12.3594 61.8047 12.3438C61.8411 12.3177 61.8958 12.2917 61.9688 12.2656C62 12.2552 62.0286 12.25 62.0547 12.25C62.0964 12.25 62.1354 12.2396 62.1719 12.2188C62.1927 12.2135 62.2109 12.2083 62.2266 12.2031C62.2474 12.1979 62.2656 12.1927 62.2812 12.1875C62.3229 12.1771 62.3542 12.1719 62.375 12.1719ZM60.0312 19.0938L60.1094 19.125C60.2031 19.0833 60.3177 19.0677 60.4531 19.0781C60.5938 19.0885 60.7031 19.0677 60.7812 19.0156C60.8333 18.974 60.8698 18.9427 60.8906 18.9219C60.9219 18.8906 60.9583 18.8802 61 18.8906C61.1667 18.8281 61.3073 18.7656 61.4219 18.7031C61.5417 18.6406 61.6667 18.5938 61.7969 18.5625C61.8802 18.5312 61.9531 18.4844 62.0156 18.4219C62.2292 18.3542 62.4089 18.2578 62.5547 18.1328C62.7057 18.0078 62.8698 17.875 63.0469 17.7344C63.1927 17.651 63.3151 17.5781 63.4141 17.5156C63.513 17.4531 63.6198 17.375 63.7344 17.2812C63.7604 17.224 63.7891 17.1849 63.8203 17.1641C63.8464 17.1484 63.875 17.1146 63.9062 17.0625C64.0938 17.0625 64.1979 17.1354 64.2188 17.2812C64.1667 17.3958 64.0964 17.4896 64.0078 17.5625C63.9141 17.6406 63.8333 17.724 63.7656 17.8125C63.6823 17.8646 63.6146 17.9115 63.5625 17.9531C63.5104 17.9948 63.4583 18.0573 63.4062 18.1406C63.401 18.1406 63.3698 18.1641 63.3125 18.2109C63.2604 18.2578 63.2292 18.2812 63.2188 18.2812C63.1354 18.3802 63.0729 18.4401 63.0312 18.4609C62.9896 18.4818 62.9167 18.5365 62.8125 18.625C62.7448 18.7396 62.651 18.8333 62.5312 18.9062C62.3073 19.1198 62.0703 19.2995 61.8203 19.4453C61.6901 19.5182 61.5677 19.5938 61.4531 19.6719C61.3385 19.7448 61.2292 19.8177 61.125 19.8906C61.0729 19.9219 61.0365 19.9505 61.0156 19.9766C60.9948 20.0026 60.9583 20.0365 60.9062 20.0781C60.8542 20.1198 60.7734 20.1615 60.6641 20.2031C60.5547 20.2448 60.4583 20.2812 60.375 20.3125C60.3073 20.3542 60.25 20.3854 60.2031 20.4062C59.9688 20.4167 59.7917 20.3802 59.6719 20.2969C59.5365 20.224 59.4323 20.1667 59.3594 20.125C59.2865 20.0833 59.224 20.0156 59.1719 19.9219C59.0521 19.8646 58.9818 19.7682 58.9609 19.6328C58.9505 19.5599 58.9375 19.4896 58.9219 19.4219C58.9062 19.3542 58.8906 19.2865 58.875 19.2188C58.8646 19.1667 58.8542 19.1068 58.8438 19.0391C58.8333 18.9714 58.8333 18.901 58.8438 18.8281C58.8698 18.7083 58.8854 18.5859 58.8906 18.4609C58.8958 18.3464 58.9219 18.2344 58.9688 18.125C59.0156 18.0208 59.0443 17.9062 59.0547 17.7812C59.0651 17.6562 59.0938 17.5417 59.1406 17.4375C59.2083 17.3333 59.237 17.276 59.2266 17.2656C59.2214 17.2604 59.224 17.2448 59.2344 17.2188L59.3047 17.125C59.3203 17.1042 59.3438 17.0677 59.375 17.0156L59.4688 16.7812C59.5156 16.6927 59.5625 16.6198 59.6094 16.5625C59.6562 16.5 59.6979 16.4115 59.7344 16.2969C59.7604 16.224 59.7891 16.1667 59.8203 16.125C59.8411 16.099 59.8594 16.0729 59.875 16.0469C59.8958 16.0156 59.9167 15.9844 59.9375 15.9531C59.9635 15.901 59.9896 15.8359 60.0156 15.7578C60.026 15.7214 60.0365 15.6875 60.0469 15.6562C60.0625 15.6198 60.0781 15.5833 60.0938 15.5469C60.125 15.4635 60.1641 15.3802 60.2109 15.2969C60.2578 15.2135 60.3073 15.1302 60.3594 15.0469C60.401 14.9635 60.4375 14.901 60.4688 14.8594C60.5 14.8177 60.5625 14.7917 60.6562 14.7812C60.7031 14.7708 60.75 14.7734 60.7969 14.7891C60.8542 14.8047 60.9062 14.8021 60.9531 14.7812C61.0885 14.7188 61.1823 14.6875 61.2344 14.6875C61.2865 14.6875 61.3229 14.6719 61.3438 14.6406C61.4531 14.6458 61.5365 14.6823 61.5938 14.75C61.651 14.8125 61.7135 14.875 61.7812 14.9375C61.7188 15.2396 61.6484 15.4714 61.5703 15.6328C61.4922 15.7943 61.4062 15.9635 61.3125 16.1406C61.2604 16.224 61.2083 16.3177 61.1562 16.4219C61.1042 16.526 61.0573 16.6198 61.0156 16.7031C60.9635 16.8177 60.9089 16.9193 60.8516 17.0078C60.7839 17.112 60.7344 17.2135 60.7031 17.3125L60.6328 17.4609C60.6016 17.5234 60.5781 17.5729 60.5625 17.6094C60.5521 17.6458 60.5391 17.6823 60.5234 17.7188C60.513 17.75 60.4974 17.7786 60.4766 17.8047C60.4557 17.8307 60.4375 17.8594 60.4219 17.8906C60.4062 17.9167 60.3906 17.9427 60.375 17.9688C60.3438 18.0312 60.3125 18.0938 60.2812 18.1562C60.25 18.2188 60.224 18.2865 60.2031 18.3594C60.151 18.474 60.1198 18.5495 60.1094 18.5859C60.1042 18.5964 60.099 18.6094 60.0938 18.625C60.0885 18.6354 60.0833 18.6458 60.0781 18.6562C60.0573 18.7708 60.026 18.8646 59.9844 18.9375C59.9427 19.0104 59.9583 19.0625 60.0312 19.0938ZM70.8594 15.4844C70.9115 15.4896 70.9453 15.5104 70.9609 15.5469C70.9766 15.5781 71.0052 15.5938 71.0469 15.5938C71.0677 15.6927 71.0469 15.763 70.9844 15.8047C70.9219 15.8411 70.901 15.901 70.9219 15.9844C70.8281 16.0469 70.7135 16.0859 70.5781 16.1016C70.4375 16.1172 70.3333 16.1719 70.2656 16.2656C70.0833 16.3542 69.8932 16.4089 69.6953 16.4297C69.5964 16.4401 69.4922 16.4557 69.3828 16.4766C69.2786 16.4922 69.1719 16.5104 69.0625 16.5312C68.9479 16.6094 68.8776 16.651 68.8516 16.6562C68.8151 16.6615 68.776 16.6771 68.7344 16.7031C68.625 16.6615 68.5156 16.6406 68.4062 16.6406C68.2969 16.6406 68.1823 16.625 68.0625 16.5938C68.0052 16.6146 67.9453 16.625 67.8828 16.625C67.8203 16.625 67.7604 16.6354 67.7031 16.6562C67.6615 16.75 67.6406 16.8438 67.6406 16.9375C67.6406 17.0365 67.625 17.1302 67.5938 17.2188L67.5 17.4062L67.4766 17.5547C67.4661 17.6172 67.4531 17.6667 67.4375 17.7031C67.4167 17.7344 67.3932 17.7708 67.3672 17.8125C67.3411 17.8542 67.3281 17.901 67.3281 17.9531C67.2552 18.0469 67.2031 18.1432 67.1719 18.2422C67.1406 18.3568 67.0833 18.4479 67 18.5156C66.9688 18.625 66.9193 18.7083 66.8516 18.7656C66.7839 18.8281 66.7188 18.901 66.6562 18.9844C66.5417 19.1406 66.4401 19.276 66.3516 19.3906C66.263 19.5052 66.1458 19.6042 66 19.6875C65.9479 19.7708 65.8854 19.8281 65.8125 19.8594C65.7604 19.9115 65.7188 19.9635 65.6875 20.0156L65.375 20.2031C65.25 20.2812 65.1302 20.3333 65.0156 20.3594C64.8385 20.401 64.6667 20.3958 64.5 20.3438C64.3333 20.2917 64.1771 20.2188 64.0312 20.125C63.9323 20.1354 63.8568 20.1172 63.8047 20.0703C63.7526 20.0286 63.6823 19.9948 63.5938 19.9688C63.4792 19.8646 63.3542 19.7708 63.2188 19.6875C63.0781 19.599 62.9792 19.4844 62.9219 19.3438L62.8516 19C62.8307 18.8958 62.8073 18.7917 62.7812 18.6875C62.7604 18.599 62.7578 18.5 62.7734 18.3906C62.7891 18.2969 62.7917 18.1927 62.7812 18.0781C62.7812 18.0208 62.7812 17.9688 62.7812 17.9219C62.7812 17.8698 62.7786 17.8255 62.7734 17.7891C62.7682 17.7109 62.7917 17.6146 62.8438 17.5C62.875 17.4323 62.901 17.3698 62.9219 17.3125C62.9427 17.2552 62.9583 17.2057 62.9688 17.1641C62.9792 17.1224 62.9896 17.0833 63 17.0469C63.0104 17.0052 63.0208 16.9688 63.0312 16.9375C63.0469 16.9115 63.0625 16.8854 63.0781 16.8594C63.0938 16.8281 63.1094 16.7969 63.125 16.7656C63.1406 16.7344 63.1562 16.7057 63.1719 16.6797C63.1927 16.6484 63.2135 16.6198 63.2344 16.5938C63.2969 16.5 63.3698 16.4062 63.4531 16.3125C63.5365 16.2188 63.6198 16.1302 63.7031 16.0469C63.7604 15.9688 63.8177 15.901 63.875 15.8438C63.9688 15.75 64.0573 15.6719 64.1406 15.6094C64.224 15.5469 64.3177 15.4635 64.4219 15.3594C64.4427 15.3281 64.4688 15.3021 64.5 15.2812L64.5938 15.2188C64.6979 15.1562 64.7943 15.1042 64.8828 15.0625C64.9714 15.0208 65.0729 14.974 65.1875 14.9219C65.2865 14.875 65.3672 14.8464 65.4297 14.8359C65.4714 14.8255 65.513 14.8177 65.5547 14.8125C65.6016 14.8021 65.651 14.7917 65.7031 14.7812H65.8906C65.9479 14.7812 66 14.7708 66.0469 14.75C66.0156 14.6667 66.0521 14.6094 66.1562 14.5781C66.2604 14.5469 66.3385 14.5365 66.3906 14.5469C66.4948 14.5469 66.5781 14.5703 66.6406 14.6172C66.7031 14.6641 66.7604 14.7188 66.8125 14.7812C66.9167 14.8542 67.0312 14.9635 67.1562 15.1094C67.1823 15.1354 67.2083 15.151 67.2344 15.1562C67.2604 15.1615 67.2865 15.1771 67.3125 15.2031C67.3542 15.2656 67.3828 15.3229 67.3984 15.375C67.4141 15.4375 67.4479 15.4948 67.5 15.5469C67.5312 15.5677 67.5625 15.5938 67.5938 15.625C67.625 15.6562 67.6458 15.6979 67.6562 15.75C67.7656 15.7917 67.8646 15.8229 67.9531 15.8438C68 15.8646 68.0547 15.8698 68.1172 15.8594C68.1745 15.849 68.2396 15.849 68.3125 15.8594C68.3594 15.8646 68.4062 15.8776 68.4531 15.8984C68.4948 15.9141 68.5417 15.9219 68.5938 15.9219C68.6719 15.9167 68.7578 15.8958 68.8516 15.8594C68.9401 15.8281 69.0417 15.8229 69.1562 15.8438C69.3125 15.8802 69.4766 15.8646 69.6484 15.7969C69.8203 15.724 69.9948 15.6771 70.1719 15.6562C70.224 15.6562 70.2604 15.6536 70.2812 15.6484C70.3021 15.6432 70.3385 15.6406 70.3906 15.6406C70.4427 15.599 70.5104 15.5677 70.5938 15.5469C70.6771 15.526 70.7656 15.5052 70.8594 15.4844ZM66.3906 15.9531C66.2865 15.8594 66.2266 15.7995 66.2109 15.7734C66.1901 15.7422 66.1719 15.724 66.1562 15.7188C66.1094 15.6719 66.0573 15.6458 66 15.6406C65.9688 15.6354 65.9375 15.6302 65.9062 15.625C65.8802 15.6198 65.8542 15.6146 65.8281 15.6094C65.6615 15.5781 65.5234 15.5964 65.4141 15.6641C65.362 15.7005 65.3073 15.7344 65.25 15.7656C65.1979 15.7969 65.1458 15.8281 65.0938 15.8594C64.9271 15.9635 64.7812 16.0938 64.6562 16.25C64.625 16.3021 64.5911 16.3594 64.5547 16.4219C64.5182 16.4844 64.4896 16.5521 64.4688 16.625C64.4271 16.7083 64.3906 16.7839 64.3594 16.8516C64.3281 16.9193 64.3021 17 64.2812 17.0938C64.2292 17.1927 64.1979 17.2786 64.1875 17.3516C64.1823 17.388 64.1771 17.4219 64.1719 17.4531C64.1667 17.4792 64.1615 17.5052 64.1562 17.5312C64.151 17.5833 64.1432 17.638 64.1328 17.6953C64.1224 17.7474 64.112 17.8021 64.1016 17.8594C64.0755 17.9896 64.0625 18.0885 64.0625 18.1562C64.0729 18.1875 64.0885 18.2292 64.1094 18.2812C64.1302 18.3333 64.151 18.3698 64.1719 18.3906C64.1927 18.4427 64.2161 18.5 64.2422 18.5625C64.2682 18.625 64.2917 18.6719 64.3125 18.7031C64.3698 18.776 64.4375 18.8229 64.5156 18.8438C64.5573 18.8542 64.6016 18.8672 64.6484 18.8828C64.6953 18.8932 64.7448 18.9062 64.7969 18.9219C64.9115 18.9844 64.9896 19.0104 65.0312 19C65.0833 18.9896 65.1146 18.9844 65.125 18.9844C65.2656 18.9583 65.3854 18.901 65.4844 18.8125C65.5729 18.7292 65.6771 18.6562 65.7969 18.5938C65.8385 18.5312 65.8802 18.4661 65.9219 18.3984C65.9688 18.3307 66.0182 18.263 66.0703 18.1953C66.1224 18.1224 66.1693 18.0521 66.2109 17.9844C66.2578 17.9115 66.3021 17.8385 66.3438 17.7656C66.3698 17.7344 66.3958 17.6875 66.4219 17.625C66.4323 17.599 66.4427 17.5755 66.4531 17.5547C66.4635 17.5286 66.474 17.5052 66.4844 17.4844C66.5573 17.3958 66.5911 17.349 66.5859 17.3438C66.5807 17.3385 66.5833 17.3229 66.5938 17.2969C66.6615 17.1406 66.6927 17.0208 66.6875 16.9375C66.6823 16.8542 66.6823 16.7708 66.6875 16.6875C66.6615 16.6302 66.638 16.5703 66.6172 16.5078C66.5964 16.4453 66.5755 16.3802 66.5547 16.3125C66.513 16.1719 66.4583 16.0521 66.3906 15.9531Z" fill="#222222"/>
</svg>
