<svg width="24" height="24" viewBox="0 0 24 24" fill="none" xmlns="http://www.w3.org/2000/svg">
<path d="M15.31 18.9C14.35 19.9 13.25 20.93 12 22C6.67 17.45 4 13.52 4 10.2C4 5.22 7.8 2 12 2C16 2 19.64 4.92 19.97 9.5H23.5L19 14L14.5 9.5H17.97C17.65 6.24 15.13 4 12 4C8.65 4 6 6.57 6 10.2C6 12.54 7.95 15.64 12 19.34C12.64 18.75 13.23 18.18 13.77 17.63C13.594 17.2828 13.5016 16.8993 13.5 16.51C13.5 15.847 13.7634 15.2111 14.2322 14.7422C14.7011 14.2734 15.337 14.01 16 14.01C16.663 14.01 17.2989 14.2734 17.7678 14.7422C18.2366 15.2111 18.5 15.847 18.5 16.51C18.4997 16.8967 18.4093 17.278 18.2361 17.6238C18.0629 17.9695 17.8117 18.2702 17.5022 18.5021C17.1927 18.734 16.8335 18.8906 16.453 18.9597C16.0726 19.0287 15.6812 19.0083 15.31 18.9Z" fill="#222222"/>
</svg>
