<svg width="126" height="28" viewBox="0 0 126 28" fill="none" xmlns="http://www.w3.org/2000/svg">
<path d="M14.408 26.792C15.4107 26.792 18.5467 25.0213 23.816 21.48L25.96 20.136C26.1093 20.0507 26.2693 20.008 26.44 20.008C26.6107 20.008 26.696 20.0293 26.696 20.072C26.696 20.1147 26.664 20.1573 26.6 20.2L24.296 21.608C23.976 21.8213 23.336 22.2587 22.376 22.92C21.416 23.56 20.6373 24.072 20.04 24.456C19.4427 24.84 18.7387 25.2773 17.928 25.768C16.328 26.7067 15.08 27.176 14.184 27.176C13.8427 27.1333 13.672 26.824 13.672 26.248C13.672 25.672 14.0133 24.7333 14.696 23.432C15.3787 22.1307 16.1893 20.7973 17.128 19.432C18.088 18.0667 19.048 16.744 20.008 15.464C20.968 14.184 21.7573 13.1387 22.376 12.328C22.9947 11.496 23.2827 11.08 23.24 11.08C23.1333 11.08 22.2053 11.9013 20.456 13.544C18.7067 15.1653 16.776 16.9467 14.664 18.888C12.552 20.8293 10.4187 22.6213 8.264 24.264C6.10933 25.8853 4.62667 26.696 3.816 26.696C3.496 26.696 3.336 26.5253 3.336 26.184C3.336 24.6053 5.128 21.64 8.712 17.288C10.2053 15.4747 11.6987 13.6507 13.192 11.816C14.6853 9.98133 15.9547 8.2 17 6.472C18.0453 4.72267 18.568 3.31467 18.568 2.248C18.568 1.94933 18.4827 1.71467 18.312 1.544C18.1413 1.37333 17.9493 1.26667 17.736 1.224C17.544 1.18133 17.256 1.14933 16.872 1.128C15.6987 1.14933 14.3867 1.608 12.936 2.504C11.4853 3.37867 10.12 4.488 8.84 5.832C7.56 7.15467 6.376 8.54133 5.288 9.992C4.22133 11.4427 3.368 12.7973 2.728 14.056C2.088 15.3147 1.768 16.232 1.768 16.808C1.768 17.3627 1.97067 17.64 2.376 17.64C3.18667 17.64 4.31733 17.1387 5.768 16.136C7.24 15.1333 8.50933 14.1307 9.576 13.128L11.144 11.624C11.272 11.496 11.3787 11.432 11.464 11.432C11.5493 11.432 11.592 11.464 11.592 11.528C11.592 11.5707 11.528 11.656 11.4 11.784L10.792 12.392C10.5147 12.6693 9.97067 13.16 9.16 13.864C8.34933 14.568 7.58133 15.1867 6.856 15.72C6.152 16.2533 5.384 16.744 4.552 17.192C3.72 17.64 3.03733 17.864 2.504 17.864C1.45867 17.864 0.936 17.32 0.936 16.232C0.936 15.3787 1.24533 14.3013 1.864 13C2.504 11.6987 3.368 10.3547 4.456 8.968C5.56533 7.56 6.78133 6.23733 8.104 5C9.42667 3.76267 10.8773 2.74933 12.456 1.96C14.056 1.17067 15.5387 0.775999 16.904 0.775999C18.2907 0.775999 18.984 1.34133 18.984 2.472C18.984 3.98667 18.4613 5.736 17.416 7.72C16.3707 9.704 15.1013 11.624 13.608 13.48C12.136 15.3147 10.6533 17.0853 9.16 18.792C7.688 20.4773 6.42933 21.992 5.384 23.336C4.33867 24.6587 3.816 25.5867 3.816 26.12C3.816 26.2267 3.86933 26.28 3.976 26.28C4.872 26.28 6.93067 24.968 10.152 22.344C13.3733 19.6987 16.36 17.064 19.112 14.44L23.272 10.504C25.0427 8.73333 26.5573 7.112 27.816 5.64C29.0747 4.14667 29.7573 3.34667 29.864 3.24C30.1413 2.83467 30.3973 2.632 30.632 2.632C30.8667 2.632 31.0907 2.67466 31.304 2.76C31.5173 2.824 31.624 2.89867 31.624 2.984C31.624 3.19733 29.992 5.32 26.728 9.352C23.4853 13.3627 21.8213 15.432 21.736 15.56C21.6507 15.6667 21.2453 16.1573 20.52 17.032C19.7947 17.9067 19.112 18.76 18.472 19.592C17.832 20.4027 17.16 21.288 16.456 22.248C14.8987 24.3813 14.12 25.7893 14.12 26.472C14.12 26.6853 14.216 26.792 14.408 26.792ZM23.9235 21.832L23.8275 21.48L25.1715 20.552C26.1315 19.912 26.7928 19.432 27.1555 19.112C27.5182 18.792 27.7742 18.5787 27.9235 18.472C28.0942 18.344 28.2755 18.1627 28.4675 17.928C28.6808 17.6933 28.8088 17.5547 28.8515 17.512C28.8515 17.512 28.9795 17.3413 29.2355 17C29.4488 16.744 29.5662 16.5947 29.5875 16.552C29.9288 16.6373 30.0995 16.8933 30.0995 17.32C29.5022 18.216 28.6275 19.3253 27.4755 20.648C26.3235 21.9707 25.7475 22.664 25.7475 22.728C25.7475 22.7707 25.7582 22.792 25.7795 22.792C25.8222 22.792 25.9822 22.6853 26.2595 22.472C26.5582 22.2373 27.3475 21.672 28.6275 20.776C31.2302 18.984 32.9902 17.7787 33.9075 17.16C34.2702 16.8613 34.5155 16.712 34.6435 16.712C34.7928 16.712 34.9102 16.7653 34.9955 16.872C35.1022 16.9573 35.1555 17.0853 35.1555 17.256C35.1555 17.4267 34.9848 17.7787 34.6435 18.312C34.3022 18.8453 33.9395 19.3573 33.5555 19.848C32.5528 21.128 31.9342 21.8853 31.6995 22.12C31.5928 22.2907 31.5395 22.3973 31.5395 22.44C31.5395 22.4613 31.5502 22.472 31.5715 22.472C31.7208 22.472 34.0888 20.7973 38.6755 17.448C39.4222 16.9147 39.9235 16.648 40.1795 16.648C40.3715 16.648 40.4675 16.8613 40.4675 17.288C40.4675 17.6933 40.1475 18.312 39.5075 19.144C38.8675 19.976 38.1635 20.744 37.3955 21.448C35.3475 23.3253 34.3235 24.36 34.3235 24.552C34.3235 24.5733 34.3662 24.584 34.4515 24.584C34.7075 24.584 36.1475 23.7413 38.7715 22.056L40.0835 21.192L40.1155 21.608C36.6808 23.8907 34.5902 25.032 33.8435 25.032C33.7155 25.032 33.6515 24.968 33.6515 24.84C33.6515 24.0507 34.1422 23.1227 35.1235 22.056C36.1262 20.968 37.1182 19.9973 38.0995 19.144C39.0808 18.2693 39.5715 17.6933 39.5715 17.416C39.5715 17.3733 39.5502 17.352 39.5075 17.352C39.4862 17.352 39.4222 17.384 39.3155 17.448C39.2088 17.512 37.8648 18.4507 35.2835 20.264C32.7235 22.0773 31.2302 23.144 30.8035 23.464C30.3768 23.7627 29.8542 24.2213 29.2355 24.84C29.0222 25.0107 28.6915 25.096 28.2435 25.096C27.7955 25.096 27.5715 25.0533 27.5715 24.968C27.5715 24.8613 27.6568 24.7227 27.8275 24.552C29.1075 23.272 30.4728 21.8213 31.9235 20.2C33.3955 18.5787 34.1635 17.704 34.2275 17.576C34.2275 17.512 34.1955 17.48 34.1315 17.48C33.9182 17.48 32.6062 18.3333 30.1955 20.04C27.7848 21.7253 26.3875 22.7067 26.0035 22.984C25.0008 23.7307 24.4675 24.1253 24.4035 24.168C24.3608 24.1893 24.2542 24.296 24.0835 24.488C23.6995 24.8933 23.3475 25.096 23.0275 25.096C22.7075 25.0107 22.5368 24.9467 22.5155 24.904C23.0062 24.3493 24.2222 22.8667 26.1635 20.456L23.9235 21.832ZM49.4968 21.192L49.5288 21.608C46.0941 23.8907 44.0034 25.032 43.2568 25.032C43.1288 25.032 43.0648 24.9573 43.0648 24.808C43.0648 24.36 43.2354 23.72 43.5768 22.888L43.7368 22.44C43.7368 22.3973 43.6941 22.376 43.6088 22.376C43.5448 22.376 42.9261 22.8027 41.7528 23.656C40.6008 24.5093 39.8434 24.936 39.4808 24.936C39.1394 24.936 38.9688 24.616 38.9688 23.976C38.9688 22.2053 39.9714 20.4773 41.9768 18.792C44.0034 17.1067 46.4354 16.264 49.2728 16.264C49.5288 16.264 49.6568 16.3707 49.6568 16.584C49.6568 16.7973 48.6541 18.0453 46.6488 20.328C44.6434 22.5893 43.6408 23.9547 43.6408 24.424C43.6408 24.5093 43.7048 24.552 43.8328 24.552C43.9608 24.552 44.5048 24.2747 45.4648 23.72C46.4248 23.1653 47.3314 22.6107 48.1848 22.056L49.4968 21.192ZM44.4088 21.224C44.7714 20.9467 45.4754 20.2107 46.5208 19.016C47.5661 17.8213 48.0888 17.128 48.0888 16.936C48.0888 16.8507 48.0034 16.808 47.8328 16.808C46.8514 16.808 45.7101 17.2667 44.4088 18.184C43.1074 19.08 41.9981 20.104 41.0807 21.256C40.1848 22.408 39.7368 23.336 39.7368 24.04C39.7368 24.168 39.8008 24.232 39.9288 24.232C40.0568 24.232 40.2594 24.1573 40.5368 24.008C40.8354 23.8373 41.1874 23.6133 41.5928 23.336C42.0194 23.0373 42.3821 22.7813 42.6808 22.568C43.7048 21.8 44.2808 21.352 44.4088 21.224ZM59.2223 20.232L59.4783 20.52C58.4969 21.1173 57.6969 21.6187 57.0783 22.024C56.4596 22.4293 55.9903 22.632 55.6703 22.632C55.2009 22.632 54.9663 22.4293 54.9663 22.024C54.9663 21.7253 55.1263 21.1387 55.4463 20.264C55.7876 19.368 56.0223 18.7387 56.1503 18.376L56.0543 18.28C55.9689 18.28 55.8729 18.3227 55.7663 18.408C53.6116 20.136 52.2143 21.2987 51.5743 21.896C50.9556 22.4933 50.3476 23.1333 49.7503 23.816C49.1743 24.4987 48.8543 24.872 48.7903 24.936C48.7476 25 48.7156 25.0427 48.6943 25.064C48.6303 25.128 48.4169 25.16 48.0542 25.16C47.6702 25.16 47.4782 25.128 47.4782 25.064C47.5209 25 47.7876 24.7013 48.2782 24.168C49.4729 22.8667 50.5503 21.6187 51.5103 20.424L50.5823 20.968C49.6009 21.5653 48.8863 22.0133 48.4383 22.312L48.3102 21.96L50.3263 20.68C51.0516 20.2107 51.6703 19.72 52.1823 19.208C52.7156 18.696 53.0783 18.28 53.2703 17.96C53.4623 17.64 53.6329 17.3733 53.7823 17.16C53.9316 16.9467 54.0703 16.84 54.1983 16.84C54.3263 16.84 54.5289 16.9147 54.8063 17.064C54.8063 17.2773 54.6356 17.6507 54.2943 18.184C53.9529 18.7173 53.6116 19.1973 53.2703 19.624L52.7583 20.232C52.7583 20.2747 52.7689 20.296 52.7903 20.296C52.8543 20.296 52.9289 20.264 53.0143 20.2C53.0996 20.1147 53.4516 19.816 54.0703 19.304C54.7103 18.7707 55.2649 18.3227 55.7343 17.96C56.2036 17.576 56.7369 17.2133 57.3343 16.872C57.9529 16.5307 58.4009 16.36 58.6783 16.36C58.9556 16.36 59.0943 16.424 59.0943 16.552C59.0943 16.7227 58.5716 17.0853 57.5263 17.64C57.2916 17.768 56.9289 18.3867 56.4383 19.496C55.9689 20.584 55.7343 21.384 55.7343 21.896C55.7343 22.0027 55.8303 22.056 56.0223 22.056C56.2356 22.056 56.6409 21.864 57.2383 21.48L59.2223 20.232ZM75.4018 9.128C75.4658 9.128 75.5191 9.24533 75.5618 9.48C75.5618 10.4827 74.6871 12.328 72.9378 15.016C71.1884 17.704 69.2471 20.2107 67.1138 22.536C64.9804 24.8613 63.4338 26.024 62.4737 26.024C62.2177 26.024 62.0897 25.864 62.0897 25.544C62.0897 24.2 62.6551 22.4933 63.7858 20.424C64.9164 18.3333 66.4311 16.2107 68.3298 14.056C70.2284 11.88 72.2871 9.832 74.5058 7.912C76.7244 5.992 79.0391 4.424 81.4498 3.208C83.8818 1.992 86.0578 1.384 87.9778 1.384C89.4498 1.384 90.1858 1.75733 90.1858 2.504C90.1858 3.61333 88.7671 5.288 85.9298 7.528C83.1138 9.768 80.6391 11.3893 78.5058 12.392C78.5058 12.4347 78.5484 12.456 78.6338 12.456C79.5724 12.328 80.3618 12.264 81.0018 12.264C83.0498 12.264 84.0738 12.9573 84.0738 14.344C84.0738 15.624 83.2844 17.2133 81.7058 19.112C80.1271 21.0107 78.1964 22.6853 75.9138 24.136C73.6524 25.5867 71.6578 26.312 69.9298 26.312C68.6711 26.312 68.0418 25.768 68.0418 24.68C68.0418 23.9333 68.3084 23.0587 68.8418 22.056C69.3751 21.032 69.9191 20.264 70.4738 19.752C70.6018 19.6667 70.6871 19.624 70.7298 19.624C70.7724 19.624 70.7938 19.6347 70.7938 19.656C70.3244 20.296 69.8871 21.096 69.4818 22.056C69.0764 22.9947 68.8738 23.8267 68.8738 24.552C68.8738 25.4907 69.2898 25.96 70.1218 25.96C71.2524 25.96 72.8524 25.2133 74.9218 23.72C76.9911 22.2267 78.8471 20.52 80.4897 18.6C82.1324 16.6587 82.9538 15.1333 82.9538 14.024C82.9538 13.064 82.2604 12.584 80.8738 12.584C79.4231 12.584 78.2924 12.7547 77.4818 13.096L77.0338 13.256C75.6044 13.832 74.8364 14.12 74.7298 14.12C74.6231 14.12 74.5698 14.0987 74.5698 14.056C74.5698 13.992 74.6551 13.9067 74.8258 13.8C76.8098 12.9893 78.8791 11.784 81.0338 10.184C83.1884 8.584 84.9378 7.048 86.2818 5.576C87.6258 4.08267 88.2978 2.99467 88.2978 2.312C88.2978 1.94933 88.0631 1.768 87.5938 1.768C85.4178 1.768 82.8258 2.73867 79.8178 4.68C76.8311 6.6 74.0898 8.85067 71.5938 11.432C69.1191 14.0133 66.9964 16.616 65.2258 19.24C63.4551 21.864 62.5697 23.8587 62.5697 25.224C62.5697 25.4587 62.6337 25.576 62.7617 25.576C63.1671 25.576 64.2978 24.488 66.1538 22.312C68.0311 20.1147 69.9084 17.6827 71.7858 15.016C73.6631 12.3493 74.7724 10.4613 75.1138 9.352C75.1564 9.20267 75.2524 9.128 75.4018 9.128ZM92.2468 21.192L92.2788 21.608C88.8441 23.8907 86.7534 25.032 86.0068 25.032C85.8788 25.032 85.8148 24.9573 85.8148 24.808C85.8148 24.36 85.9854 23.72 86.3268 22.888L86.4868 22.44C86.4868 22.3973 86.4441 22.376 86.3588 22.376C86.2948 22.376 85.6761 22.8027 84.5028 23.656C83.3508 24.5093 82.5934 24.936 82.2308 24.936C81.8894 24.936 81.7188 24.616 81.7188 23.976C81.7188 22.2053 82.7214 20.4773 84.7268 18.792C86.7534 17.1067 89.1854 16.264 92.0228 16.264C92.2788 16.264 92.4068 16.3707 92.4068 16.584C92.4068 16.7973 91.4041 18.0453 89.3988 20.328C87.3934 22.5893 86.3908 23.9547 86.3908 24.424C86.3908 24.5093 86.4548 24.552 86.5828 24.552C86.7108 24.552 87.2548 24.2747 88.2148 23.72C89.1748 23.1653 90.0814 22.6107 90.9348 22.056L92.2468 21.192ZM87.1588 21.224C87.5214 20.9467 88.2254 20.2107 89.2708 19.016C90.3161 17.8213 90.8388 17.128 90.8388 16.936C90.8388 16.8507 90.7534 16.808 90.5828 16.808C89.6014 16.808 88.4601 17.2667 87.1588 18.184C85.8574 19.08 84.7481 20.104 83.8307 21.256C82.9348 22.408 82.4868 23.336 82.4868 24.04C82.4868 24.168 82.5508 24.232 82.6788 24.232C82.8068 24.232 83.0094 24.1573 83.2868 24.008C83.5854 23.8373 83.9374 23.6133 84.3428 23.336C84.7694 23.0373 85.1321 22.7813 85.4308 22.568C86.4548 21.8 87.0308 21.352 87.1588 21.224ZM92.2763 21.608C92.1696 21.672 92.0416 21.7573 91.8923 21.864L91.7963 21.48C94.2069 19.944 96.1696 18.7493 97.6843 17.896L98.5483 17.384C98.8683 17.128 99.2203 16.8293 99.6042 16.488C100.415 15.848 100.842 15.5387 100.884 15.56C100.991 15.56 101.044 15.6133 101.044 15.72C101.044 15.8053 100.959 15.9653 100.788 16.2C100.618 16.4133 100.372 16.6693 100.052 16.968C99.7536 17.2667 99.5723 17.4587 99.5083 17.544C99.1883 17.864 98.6549 18.888 97.9083 20.616C97.1829 22.3227 96.7883 23.24 96.7243 23.368C96.7243 23.4533 96.7456 23.496 96.7883 23.496C96.8523 23.496 96.8949 23.4853 96.9163 23.464L100.5 21.192L100.532 21.608C100.276 21.7573 99.8496 22.024 99.2523 22.408C98.6549 22.792 98.2283 23.0587 97.9723 23.208C97.7376 23.3573 97.3856 23.5813 96.9163 23.88C96.4469 24.1573 96.0843 24.36 95.8283 24.488C95.5723 24.616 95.2736 24.7653 94.9323 24.936C94.0576 25.192 93.5029 25.32 93.2682 25.32C93.2469 25.32 93.2363 25.32 93.2363 25.32C92.6603 25.32 92.1909 25.1493 91.8283 24.808C91.4656 24.4667 91.2843 24.072 91.2843 23.624C91.2843 23.176 91.4336 22.792 91.7323 22.472C92.0523 22.152 92.4256 21.992 92.8523 21.992C93.2789 21.992 93.4923 22.1627 93.4923 22.504C93.4923 22.696 93.4176 22.8773 93.2682 23.048C93.1403 23.2187 92.9696 23.304 92.7563 23.304C92.5643 23.304 92.4469 23.208 92.4043 23.016C92.3829 22.824 92.3296 22.728 92.2443 22.728C92.0949 22.728 91.9669 22.8027 91.8603 22.952C91.7749 23.1013 91.7323 23.3147 91.7323 23.592C91.7323 23.8693 91.8603 24.1467 92.1163 24.424C92.3723 24.68 92.7349 24.808 93.2043 24.808C93.6736 24.808 94.1109 24.6373 94.5163 24.296C94.9429 23.9547 95.2309 23.656 95.3802 23.4C95.5296 23.144 95.8496 22.4293 96.3403 21.256C96.8309 20.0613 97.3429 19.1227 97.8763 18.44L97.9403 18.312C97.9403 18.2907 97.9083 18.28 97.8443 18.28C97.6736 18.28 96.2549 19.112 93.5883 20.776L92.2763 21.608ZM109.582 11.368L104.942 16.776C106.628 15.6453 109.22 13.2987 112.718 9.736C116.217 6.17333 117.966 4.05066 117.966 3.368C117.966 3.26133 117.913 3.208 117.806 3.208C117.7 3.208 117.582 3.24 117.454 3.304C116.068 4.072 114.382 5.64 112.398 8.008C112.313 8.09333 111.865 8.62667 111.054 9.608C110.265 10.568 109.774 11.1547 109.582 11.368ZM118.734 3.016C118.734 4.01867 116.878 6.36533 113.166 10.056C109.476 13.7253 106.382 16.3813 103.886 18.024L103.374 18.632C102.841 19.1227 101.764 20.456 100.142 22.632C100.014 22.8453 99.9503 22.9627 99.9503 22.984C99.9503 23.0053 99.9609 23.016 99.9823 23.016C100.025 23.016 100.153 22.952 100.366 22.824C100.58 22.6747 101.38 22.0987 102.766 21.096C105.966 18.7707 108.302 17.2453 109.774 16.52C109.902 16.4773 109.988 16.456 110.03 16.456C110.265 16.456 110.382 16.6587 110.382 17.064C110.382 17.448 110.073 18.056 109.454 18.888C108.836 19.6987 108.153 20.456 107.406 21.16C105.401 23.0587 104.398 24.1253 104.398 24.36C104.398 24.488 104.441 24.552 104.526 24.552C105.721 24.168 106.766 23.7093 107.662 23.176L110.798 21.192L110.83 21.608C108.59 23.1013 106.916 24.0507 105.806 24.456C104.718 24.8613 104.014 25.064 103.694 25.064C103.396 25.064 103.246 24.968 103.246 24.776C103.246 24.392 103.79 23.624 104.878 22.472C105.966 21.32 107.044 20.2 108.11 19.112C109.198 18.0027 109.742 17.3413 109.742 17.128C109.742 17.0853 109.71 17.064 109.646 17.064C109.369 17.064 108.046 17.864 105.678 19.464C103.31 21.064 101.529 22.3227 100.334 23.24C99.1609 24.136 98.5102 24.6587 98.3822 24.808C98.2542 24.936 97.9236 25.032 97.3902 25.096C97.1769 25.096 97.0702 25.0427 97.0702 24.936C97.0702 24.8293 97.2196 24.5733 97.5182 24.168C99.0542 22.2907 101.529 19.368 104.942 15.4C108.356 11.4107 110.19 9.29867 110.446 9.064C110.702 8.808 111.065 8.43467 111.534 7.944C112.025 7.45333 112.452 7.02667 112.814 6.664C113.198 6.28 113.678 5.82133 114.254 5.288C114.852 4.73333 115.364 4.27467 115.79 3.912C116.878 3.016 117.678 2.568 118.19 2.568C118.34 2.568 118.468 2.62133 118.574 2.728C118.681 2.81333 118.734 2.90933 118.734 3.016ZM117.175 13.864C117.175 14.184 117.356 14.344 117.719 14.344C118.081 14.344 118.412 14.184 118.711 13.864C119.009 13.5227 119.159 13.2667 119.159 13.096C119.159 12.9253 119.095 12.776 118.967 12.648C118.86 12.52 118.689 12.456 118.455 12.456C118.241 12.456 117.975 12.6053 117.655 12.904C117.335 13.2027 117.175 13.5227 117.175 13.864ZM109.623 24.456C109.623 24.5413 109.676 24.584 109.783 24.584C110.167 24.584 112.076 23.4533 115.511 21.192L115.543 21.608L114.231 22.472C113.356 23.048 112.396 23.624 111.351 24.2C110.305 24.7547 109.612 25.032 109.271 25.032C109.015 25.032 108.887 24.8293 108.887 24.424C108.887 23.9973 109.527 22.92 110.807 21.192C112.108 19.4427 113.484 17.832 114.935 16.36C115.084 16.1893 115.244 16.104 115.415 16.104L116.151 16.168C116.321 16.1893 116.407 16.2427 116.407 16.328C116.407 16.392 116.343 16.5093 116.215 16.68C115.361 17.5333 114.103 18.9093 112.439 20.808C110.796 22.7067 109.857 23.9227 109.623 24.456ZM125.254 20.232L125.51 20.52C124.528 21.1173 123.728 21.6187 123.11 22.024C122.491 22.4293 122.022 22.632 121.702 22.632C121.232 22.632 120.998 22.4293 120.998 22.024C120.998 21.7253 121.158 21.1387 121.478 20.264C121.819 19.368 122.054 18.7387 122.182 18.376L122.086 18.28C122 18.28 121.904 18.3227 121.798 18.408C119.643 20.136 118.246 21.2987 117.606 21.896C116.987 22.4933 116.379 23.1333 115.782 23.816C115.206 24.4987 114.886 24.872 114.822 24.936C114.779 25 114.747 25.0427 114.726 25.064C114.662 25.128 114.448 25.16 114.085 25.16C113.701 25.16 113.509 25.128 113.509 25.064C113.552 25 113.819 24.7013 114.309 24.168C115.504 22.8667 116.582 21.6187 117.542 20.424L116.614 20.968C115.632 21.5653 114.918 22.0133 114.47 22.312L114.341 21.96L116.358 20.68C117.083 20.2107 117.702 19.72 118.214 19.208C118.747 18.696 119.11 18.28 119.302 17.96C119.494 17.64 119.664 17.3733 119.814 17.16C119.963 16.9467 120.102 16.84 120.23 16.84C120.358 16.84 120.56 16.9147 120.838 17.064C120.838 17.2773 120.667 17.6507 120.326 18.184C119.984 18.7173 119.643 19.1973 119.302 19.624L118.79 20.232C118.79 20.2747 118.8 20.296 118.822 20.296C118.886 20.296 118.96 20.264 119.046 20.2C119.131 20.1147 119.483 19.816 120.102 19.304C120.742 18.7707 121.296 18.3227 121.766 17.96C122.235 17.576 122.768 17.2133 123.366 16.872C123.984 16.5307 124.432 16.36 124.71 16.36C124.987 16.36 125.126 16.424 125.126 16.552C125.126 16.7227 124.603 17.0853 123.558 17.64C123.323 17.768 122.96 18.3867 122.47 19.496C122 20.584 121.766 21.384 121.766 21.896C121.766 22.0027 121.862 22.056 122.054 22.056C122.267 22.056 122.672 21.864 123.27 21.48L125.254 20.232Z" fill="black"/>
</svg>
