<svg width="76" height="29" viewBox="0 0 76 29" fill="none" xmlns="http://www.w3.org/2000/svg">
<path d="M16.5855 23.0389C15.5455 24.205 14.3538 25.406 12.9997 26.6538C7.22551 21.3481 4.33301 16.7653 4.33301 12.8939C4.33301 7.08683 8.44967 3.33203 12.9997 3.33203C17.333 3.33203 21.2763 6.737 21.6338 12.0777H25.458L20.583 17.3251L15.708 12.0777H19.4672C19.1205 8.27624 16.3905 5.6642 12.9997 5.6642C9.37051 5.6642 6.49967 8.66104 6.49967 12.8939C6.49967 15.6226 8.61217 19.2374 12.9997 23.552C13.693 22.864 14.3322 22.1993 14.9172 21.558C14.7265 21.1531 14.6264 20.7059 14.6247 20.2519C14.6247 19.4788 14.91 18.7373 15.4179 18.1906C15.9258 17.6439 16.6147 17.3367 17.333 17.3367C18.0513 17.3367 18.7402 17.6439 19.2481 18.1906C19.756 18.7373 20.0413 19.4788 20.0413 20.2519C20.041 20.7029 19.9431 21.1475 19.7555 21.5507C19.5679 21.9539 19.2957 22.3045 18.9604 22.5749C18.6251 22.8453 18.236 23.028 17.8238 23.1085C17.4116 23.189 16.9877 23.1652 16.5855 23.0389Z" fill="white"/>
<path d="M39.9844 8.34375L40.0781 8.375C40.1302 8.45833 40.1458 8.55729 40.125 8.67188C40.1198 8.71354 40.0859 8.77344 40.0234 8.85156C39.9974 8.88802 39.9714 8.92188 39.9453 8.95312C39.9245 8.97917 39.9062 9.00521 39.8906 9.03125C39.776 9.125 39.7109 9.1901 39.6953 9.22656C39.6745 9.26823 39.6354 9.30208 39.5781 9.32812C39.3906 9.40104 39.2448 9.4375 39.1406 9.4375C39.0833 9.4375 39.0182 9.4375 38.9453 9.4375C38.8724 9.43229 38.7917 9.42708 38.7031 9.42188C38.5781 9.42188 38.487 9.42708 38.4297 9.4375C38.3724 9.44792 38.2812 9.46875 38.1562 9.5C38.1354 9.50521 38.1172 9.51042 38.1016 9.51562C38.0859 9.52083 38.0729 9.52604 38.0625 9.53125C38.0521 9.53646 38.0365 9.54167 38.0156 9.54688C38 9.55208 37.9792 9.55729 37.9531 9.5625C37.9062 9.58333 37.8568 9.59375 37.8047 9.59375C37.7578 9.59375 37.7188 9.60938 37.6875 9.64062C37.6354 9.63021 37.6042 9.63021 37.5938 9.64062C37.5885 9.64583 37.5573 9.66146 37.5 9.6875C37.4271 9.69792 37.3776 9.70833 37.3516 9.71875C37.3255 9.72917 37.2917 9.74479 37.25 9.76562C37.224 9.74479 37.1823 9.74219 37.125 9.75781C37.099 9.76302 37.0729 9.77083 37.0469 9.78125C37.0208 9.78646 36.9948 9.79167 36.9688 9.79688C36.8854 9.81771 36.8151 9.83333 36.7578 9.84375C36.7109 9.84896 36.6562 9.86979 36.5938 9.90625C36.5833 9.94271 36.5677 9.97135 36.5469 9.99219C36.526 10.013 36.5208 10.0417 36.5312 10.0781C36.4635 10.151 36.4115 10.2344 36.375 10.3281C36.3385 10.4167 36.2812 10.4948 36.2031 10.5625L36.1094 10.7266C36.0729 10.7943 36.0312 10.8438 35.9844 10.875C35.9583 10.9635 35.9245 11.0339 35.8828 11.0859C35.8307 11.1432 35.7865 11.2031 35.75 11.2656C35.6667 11.4062 35.5781 11.6068 35.4844 11.8672C35.3906 12.1276 35.3021 12.3281 35.2188 12.4688C35.1823 12.5885 35.125 12.7057 35.0469 12.8203C34.9688 12.9349 34.9062 13.0417 34.8594 13.1406C34.8177 13.3177 34.7682 13.4896 34.7109 13.6562C34.6536 13.8177 34.5885 13.974 34.5156 14.125C34.3698 14.4271 34.2292 14.7396 34.0938 15.0625C34.0417 15.1771 34.0078 15.2422 33.9922 15.2578C33.9766 15.2734 33.9688 15.2969 33.9688 15.3281C33.9115 15.3854 33.8724 15.4505 33.8516 15.5234C33.8307 15.5911 33.8021 15.6667 33.7656 15.75C33.7604 15.776 33.724 15.8229 33.6562 15.8906C33.6458 15.9167 33.6354 15.9453 33.625 15.9766C33.6146 16.0026 33.6042 16.0312 33.5938 16.0625C33.5833 16.0938 33.5729 16.125 33.5625 16.1562C33.5521 16.1823 33.5417 16.2083 33.5312 16.2344C33.5 16.2708 33.4844 16.3125 33.4844 16.3594C33.4844 16.401 33.474 16.4323 33.4531 16.4531C33.3906 16.5677 33.3594 16.6406 33.3594 16.6719C33.3594 16.6927 33.3542 16.724 33.3438 16.7656C33.3021 16.849 33.2682 16.9245 33.2422 16.9922C33.2161 17.0547 33.1979 17.1068 33.1875 17.1484C33.1615 17.2526 33.125 17.3333 33.0781 17.3906C33.0781 17.4479 33.0677 17.4948 33.0469 17.5312C33.0365 17.5521 33.026 17.5729 33.0156 17.5938C33.0052 17.6146 32.9948 17.6354 32.9844 17.6562C33.0052 17.7396 32.9896 17.8307 32.9375 17.9297C32.9115 17.9818 32.8854 18.0312 32.8594 18.0781C32.8385 18.1198 32.8177 18.1615 32.7969 18.2031C32.7344 18.3646 32.6771 18.4818 32.625 18.5547C32.5885 18.6068 32.5573 18.6667 32.5312 18.7344C32.4688 18.875 32.4245 18.9609 32.3984 18.9922C32.362 19.0339 32.3281 19.0833 32.2969 19.1406L32.1484 19.4688C32.0964 19.5781 32.0417 19.6771 31.9844 19.7656V19.8984C31.9844 19.9349 31.9792 19.9792 31.9688 20.0312C31.9479 20.0833 31.9141 20.138 31.8672 20.1953C31.8203 20.2526 31.7812 20.2865 31.75 20.2969C31.6458 20.2969 31.5729 20.3047 31.5312 20.3203C31.4948 20.3359 31.4531 20.3438 31.4062 20.3438C31.3542 20.3229 31.3021 20.2917 31.25 20.25C31.1979 20.2083 31.151 20.1667 31.1094 20.125C31.0521 20.0573 30.9974 19.9948 30.9453 19.9375C30.8932 19.8802 30.8438 19.8307 30.7969 19.7891C30.6979 19.7005 30.6458 19.5833 30.6406 19.4375C30.6302 19.3646 30.6406 19.2917 30.6719 19.2188C30.7031 19.1458 30.7604 19.099 30.8438 19.0781C30.9635 18.8333 31.0495 18.6302 31.1016 18.4688C31.1276 18.3854 31.1562 18.3021 31.1875 18.2188C31.224 18.1354 31.2604 18.0521 31.2969 17.9688C31.3177 17.9271 31.3359 17.888 31.3516 17.8516C31.3672 17.8151 31.3854 17.7708 31.4062 17.7188C31.4323 17.6615 31.4479 17.6172 31.4531 17.5859C31.4583 17.5547 31.474 17.5104 31.5 17.4531C31.5312 17.3698 31.5677 17.2917 31.6094 17.2188C31.651 17.1458 31.6979 17.0677 31.75 16.9844C31.8281 16.8438 31.9062 16.6901 31.9844 16.5234C32.0469 16.3932 32.1302 16.2448 32.2344 16.0781C32.2604 16.0052 32.2891 15.9505 32.3203 15.9141C32.3516 15.8776 32.3802 15.8229 32.4062 15.75C32.4271 15.6927 32.4297 15.638 32.4141 15.5859C32.3984 15.5443 32.3958 15.4948 32.4062 15.4375C32.4115 15.3802 32.4401 15.3255 32.4922 15.2734C32.5391 15.2266 32.5625 15.1719 32.5625 15.1094L32.7109 14.875C32.737 14.8385 32.7604 14.8021 32.7812 14.7656C32.8073 14.724 32.8333 14.6823 32.8594 14.6406C32.9062 14.5573 32.9401 14.487 32.9609 14.4297C32.9766 14.388 33 14.3385 33.0312 14.2812C33.0781 14.2083 33.1042 14.1562 33.1094 14.125C33.1406 14.0417 33.1719 13.9635 33.2031 13.8906C33.2344 13.8177 33.276 13.7552 33.3281 13.7031C33.349 13.599 33.3828 13.513 33.4297 13.4453C33.4766 13.3776 33.526 13.3073 33.5781 13.2344C33.6198 13.0938 33.6745 12.9661 33.7422 12.8516C33.7786 12.7943 33.8099 12.7344 33.8359 12.6719C33.8672 12.6094 33.8958 12.5469 33.9219 12.4844C33.974 12.375 34.0234 12.2292 34.0703 12.0469C34.1172 11.8646 34.1667 11.7188 34.2188 11.6094C34.3542 11.3646 34.4792 11.1224 34.5938 10.8828C34.651 10.763 34.7083 10.6432 34.7656 10.5234C34.8281 10.3984 34.8906 10.276 34.9531 10.1562C34.8802 10.1562 34.8047 10.1562 34.7266 10.1562C34.6484 10.1562 34.5677 10.1589 34.4844 10.1641C34.3177 10.1745 34.1719 10.1667 34.0469 10.1406C33.9948 10.1406 33.9609 10.1484 33.9453 10.1641C33.9297 10.1797 33.8906 10.1823 33.8281 10.1719C33.7969 10.1719 33.7552 10.1667 33.7031 10.1562C33.651 10.1458 33.6042 10.1406 33.5625 10.1406C33.4635 10.1302 33.362 10.1432 33.2578 10.1797C33.2005 10.2005 33.1432 10.2188 33.0859 10.2344C33.0339 10.2448 32.9844 10.2552 32.9375 10.2656C32.7969 10.2917 32.7161 10.3255 32.6953 10.3672C32.6745 10.4089 32.6094 10.4427 32.5 10.4688C32.4531 10.4896 32.3984 10.4948 32.3359 10.4844C32.2839 10.474 32.2292 10.4896 32.1719 10.5312C32.0573 10.5104 31.9557 10.4557 31.8672 10.3672C31.7786 10.2786 31.7031 10.1823 31.6406 10.0781C31.6198 10.0365 31.5885 10.0208 31.5469 10.0312C31.5 10.0417 31.474 10.0208 31.4688 9.96875C31.4479 9.88542 31.4479 9.80208 31.4688 9.71875C31.474 9.69271 31.4896 9.66667 31.5156 9.64062C31.5365 9.61979 31.5469 9.59375 31.5469 9.5625C31.6354 9.53646 31.7109 9.52083 31.7734 9.51562C31.8359 9.51042 31.8958 9.47917 31.9531 9.42188C32.125 9.39062 32.2682 9.35938 32.3828 9.32812C32.4401 9.3125 32.5026 9.29688 32.5703 9.28125C32.6432 9.26042 32.724 9.23958 32.8125 9.21875C32.9167 9.16146 32.9714 9.13802 32.9766 9.14844C32.9818 9.15365 32.9948 9.15625 33.0156 9.15625L33.375 9.07812C33.5104 9.04688 33.651 9.01562 33.7969 8.98438C33.9427 8.96354 34.0599 8.95052 34.1484 8.94531C34.237 8.9401 34.3646 8.94271 34.5312 8.95312C34.7188 8.95833 34.9062 8.95052 35.0938 8.92969L35.625 8.85938C35.6615 8.84896 35.6927 8.84115 35.7188 8.83594C35.75 8.83073 35.776 8.82552 35.7969 8.82031L35.9062 8.79688C35.9375 8.79167 35.9661 8.78906 35.9922 8.78906C36.0234 8.78385 36.0521 8.78125 36.0781 8.78125C36.1302 8.78125 36.1719 8.76042 36.2031 8.71875C36.401 8.67708 36.5833 8.64062 36.75 8.60938C36.9167 8.57812 37.0781 8.54948 37.2344 8.52344C37.3542 8.5026 37.5156 8.47396 37.7188 8.4375C37.9271 8.39583 38.1094 8.36458 38.2656 8.34375C38.4375 8.32292 38.5729 8.29948 38.6719 8.27344C38.7812 8.2474 38.9323 8.24479 39.125 8.26562C39.2083 8.27604 39.2708 8.28125 39.3125 8.28125C39.3438 8.28125 39.3776 8.28385 39.4141 8.28906C39.4505 8.28906 39.4896 8.29167 39.5312 8.29688C39.5573 8.30208 39.5885 8.3099 39.625 8.32031C39.6615 8.33073 39.7005 8.34115 39.7422 8.35156C39.8359 8.3776 39.9167 8.375 39.9844 8.34375ZM40.5938 18.7656C40.6354 18.7083 40.6667 18.6693 40.6875 18.6484C40.7135 18.6224 40.7448 18.599 40.7812 18.5781C40.9115 18.3021 41.0807 18.0833 41.2891 17.9219C41.5026 17.7604 41.7292 17.5781 41.9688 17.375C42.0208 17.375 42.0651 17.3568 42.1016 17.3203C42.138 17.2839 42.1823 17.2552 42.2344 17.2344C42.2969 17.1771 42.3568 17.1302 42.4141 17.0938C42.4609 17.0625 42.5 17.0208 42.5312 16.9688C42.651 16.9115 42.763 16.8333 42.8672 16.7344C42.9766 16.6354 43.0833 16.5469 43.1875 16.4688C43.2708 16.4479 43.3594 16.4583 43.4531 16.5C43.4948 16.5833 43.5104 16.6719 43.5 16.7656C43.4896 16.8594 43.4375 16.9115 43.3438 16.9219C43.3125 16.9531 43.2786 16.9844 43.2422 17.0156C43.2057 17.0469 43.1615 17.0677 43.1094 17.0781C43.0052 17.099 42.9375 17.1406 42.9062 17.2031C42.901 17.3021 42.888 17.362 42.8672 17.3828C42.8464 17.4036 42.8333 17.4219 42.8281 17.4375C42.7135 17.6302 42.5859 17.7969 42.4453 17.9375C42.3047 18.0729 42.1719 18.2396 42.0469 18.4375C41.9896 18.474 41.9427 18.5312 41.9062 18.6094C41.7188 18.7135 41.5807 18.7943 41.4922 18.8516C41.4036 18.9089 41.3229 18.9792 41.25 19.0625C41.1875 19.099 41.1562 19.1302 41.1562 19.1562C41.1562 19.1771 41.1458 19.1979 41.125 19.2188C41.0208 19.3073 40.9609 19.3724 40.9453 19.4141C40.9297 19.4557 40.9062 19.4896 40.875 19.5156C40.8229 19.5521 40.776 19.5885 40.7344 19.625C40.6979 19.6562 40.6667 19.6849 40.6406 19.7109C40.5781 19.7734 40.5104 19.8177 40.4375 19.8438C40.349 19.9167 40.2188 20.0026 40.0469 20.1016C39.875 20.2057 39.6979 20.2839 39.5156 20.3359C39.3333 20.3932 39.1823 20.3958 39.0625 20.3438L38.9531 20.2578C38.9323 20.2422 38.8958 20.2188 38.8438 20.1875C38.776 20.1042 38.7005 20.0339 38.6172 19.9766C38.5443 19.9245 38.474 19.849 38.4062 19.75C38.3281 19.6406 38.2786 19.5286 38.2578 19.4141C38.237 19.2943 38.1979 19.1771 38.1406 19.0625C38.1146 18.7917 38.1354 18.5677 38.2031 18.3906C38.2604 18.2135 38.3229 18.0495 38.3906 17.8984C38.4583 17.7422 38.5339 17.599 38.6172 17.4688C38.7786 17.2188 38.8906 16.9219 38.9531 16.5781C38.8385 16.4635 38.7734 16.3568 38.7578 16.2578C38.7526 16.2057 38.7422 16.1458 38.7266 16.0781C38.7109 16.0104 38.6927 15.9323 38.6719 15.8438C38.401 16.0208 38.151 16.2448 37.9219 16.5156C37.6927 16.7865 37.4896 17.0625 37.3125 17.3438L37.125 17.6875C37.0729 17.7865 37.0104 17.8802 36.9375 17.9688C36.8854 18.0208 36.8594 18.0547 36.8594 18.0703C36.8594 18.0859 36.849 18.1042 36.8281 18.125C36.7865 18.1771 36.7526 18.2214 36.7266 18.2578C36.7005 18.2943 36.6823 18.3229 36.6719 18.3438C36.6615 18.3646 36.651 18.3854 36.6406 18.4062C36.6302 18.4219 36.6198 18.4375 36.6094 18.4531C36.5781 18.4948 36.5521 18.526 36.5312 18.5469C36.5104 18.5677 36.4844 18.599 36.4531 18.6406C36.3073 18.849 36.1745 19.0443 36.0547 19.2266L35.6875 19.7812C35.6302 19.8698 35.5833 19.9583 35.5469 20.0469C35.5104 20.1406 35.4583 20.224 35.3906 20.2969C35.2865 20.3073 35.2266 20.2917 35.2109 20.25C35.1953 20.2083 35.1979 20.1719 35.2188 20.1406C35.0938 20.0573 35.0234 19.8958 35.0078 19.6562C34.9922 19.4167 35.0156 19.224 35.0781 19.0781C35.0469 18.9844 35.0365 18.9323 35.0469 18.9219C35.0573 18.9115 35.0625 18.8958 35.0625 18.875C35.1979 18.6875 35.3359 18.5 35.4766 18.3125C35.6172 18.125 35.7656 17.9479 35.9219 17.7812C35.9479 17.7448 35.974 17.7083 36 17.6719C36.026 17.6354 36.0495 17.599 36.0703 17.5625C36.1224 17.4844 36.1771 17.4167 36.2344 17.3594C36.3229 17.2083 36.4297 17.0521 36.5547 16.8906C36.6797 16.7344 36.7812 16.5729 36.8594 16.4062C36.9167 16.349 36.9557 16.2917 36.9766 16.2344C37.0026 16.1719 37.0469 16.1198 37.1094 16.0781C37.1458 16.0156 37.1771 15.9557 37.2031 15.8984C37.2344 15.8359 37.2604 15.776 37.2812 15.7188C37.3125 15.6198 37.3698 15.5208 37.4531 15.4219C37.474 15.349 37.5 15.2917 37.5312 15.25C37.5625 15.2083 37.6042 15.1615 37.6562 15.1094C37.6615 15.0625 37.6901 15.0182 37.7422 14.9766C37.7943 14.9349 37.8333 14.8906 37.8594 14.8438C37.8854 14.7708 37.9115 14.724 37.9375 14.7031C37.9688 14.6771 37.9844 14.6406 37.9844 14.5938C38.0365 14.5417 38.0885 14.487 38.1406 14.4297C38.1927 14.3724 38.2396 14.3021 38.2812 14.2188C38.4271 14.1354 38.5286 14.0938 38.5859 14.0938C38.6432 14.0938 38.6875 14.0677 38.7188 14.0156C38.7604 14.0156 38.8047 14.0156 38.8516 14.0156C38.9036 14.0156 38.9583 14.013 39.0156 14.0078C39.1354 13.9974 39.1979 14.0365 39.2031 14.125C39.2083 14.1458 39.2083 14.1719 39.2031 14.2031C39.1979 14.2188 39.1927 14.2344 39.1875 14.25C39.1823 14.2656 39.1771 14.2812 39.1719 14.2969C39.1771 14.3906 39.1771 14.4401 39.1719 14.4453C39.1615 14.4557 39.1562 14.4635 39.1562 14.4688C39.1458 14.5104 39.1432 14.5469 39.1484 14.5781C39.1536 14.6042 39.1562 14.651 39.1562 14.7188C39.151 14.7604 39.1458 14.7969 39.1406 14.8281C39.1354 14.8594 39.1302 14.888 39.125 14.9141C39.1146 14.9661 39.1354 15.026 39.1875 15.0938C39.2135 15.1302 39.2448 15.1589 39.2812 15.1797C39.3177 15.2005 39.3542 15.2344 39.3906 15.2812C39.4167 15.3073 39.4349 15.3385 39.4453 15.375C39.4557 15.4115 39.474 15.4427 39.5 15.4688C39.5208 15.4948 39.5521 15.5208 39.5938 15.5469C39.6354 15.5729 39.6667 15.6094 39.6875 15.6562C39.7448 15.6979 39.763 15.724 39.7422 15.7344C39.7266 15.7448 39.75 15.7656 39.8125 15.7969C39.9323 15.9479 40.0208 16.1094 40.0781 16.2812C40.1458 16.4115 40.2031 16.5156 40.25 16.5938C40.3021 16.6771 40.3021 16.7604 40.25 16.8438C40.2188 16.875 40.1823 16.9375 40.1406 17.0312C40.0938 17.0781 40.0521 17.1302 40.0156 17.1875C39.9948 17.224 39.9792 17.263 39.9688 17.3047C39.9635 17.3411 39.9479 17.375 39.9219 17.4062C39.8281 17.5573 39.7318 17.6927 39.6328 17.8125C39.5339 17.9323 39.4479 18.0625 39.375 18.2031C39.3802 18.5 39.4375 18.7188 39.5469 18.8594C39.6719 19.0052 39.75 19.0781 39.7812 19.0781C39.849 19.0885 39.9219 19.0677 40 19.0156L40.2031 18.8906C40.224 18.8802 40.2422 18.8698 40.2578 18.8594C40.2786 18.849 40.2969 18.8385 40.3125 18.8281C40.3438 18.8073 40.3802 18.7917 40.4219 18.7812C40.5312 18.7448 40.5833 18.7318 40.5781 18.7422C40.5729 18.7578 40.5781 18.7656 40.5938 18.7656ZM46.7344 15.6562L46.7188 15.7812C46.7292 15.8177 46.7188 15.8802 46.6875 15.9688C46.6354 16.0312 46.6042 16.099 46.5938 16.1719C46.5729 16.2135 46.5547 16.25 46.5391 16.2812C46.5234 16.3125 46.5104 16.3542 46.5 16.4062C46.4792 16.4688 46.4714 16.5417 46.4766 16.625C46.4818 16.6667 46.4818 16.7083 46.4766 16.75C46.4766 16.7865 46.474 16.8229 46.4688 16.8594C46.4479 16.974 46.4323 17.0859 46.4219 17.1953C46.4115 17.3047 46.401 17.4167 46.3906 17.5312C46.3906 17.6458 46.3802 17.776 46.3594 17.9219C46.3385 18.0677 46.3177 18.1979 46.2969 18.3125C46.3438 18.3958 46.3698 18.474 46.375 18.5469C46.3802 18.625 46.4167 18.6927 46.4844 18.75C46.6927 18.7188 46.8594 18.6693 46.9844 18.6016C47.1094 18.5339 47.2292 18.4375 47.3438 18.3125C47.4271 18.276 47.4922 18.2396 47.5391 18.2031C47.5807 18.1667 47.6406 18.125 47.7188 18.0781L47.8438 17.9531C47.9688 17.8854 48.0391 17.8438 48.0547 17.8281C48.0651 17.8177 48.0781 17.8073 48.0938 17.7969C48.1146 17.7865 48.1354 17.776 48.1562 17.7656C48.3333 17.651 48.4688 17.5312 48.5625 17.4062C48.6406 17.3438 48.7057 17.2786 48.7578 17.2109C48.7995 17.1536 48.8802 17.099 49 17.0469C49.0677 16.9635 49.1432 16.8932 49.2266 16.8359C49.3099 16.7786 49.3854 16.7083 49.4531 16.625C49.5104 16.625 49.5521 16.6354 49.5781 16.6562C49.5938 16.6667 49.6094 16.6771 49.625 16.6875C49.6458 16.6979 49.6667 16.7083 49.6875 16.7188C49.7188 16.8021 49.724 16.888 49.7031 16.9766C49.6823 17.0651 49.6458 17.1458 49.5938 17.2188C49.5417 17.2865 49.5156 17.3281 49.5156 17.3438C49.5156 17.3542 49.5104 17.3646 49.5 17.375C49.4688 17.4115 49.4297 17.4505 49.3828 17.4922C49.3359 17.5286 49.2969 17.5677 49.2656 17.6094C49.2135 17.7031 49.1719 17.75 49.1406 17.75C49.1094 17.75 49.0833 17.7604 49.0625 17.7812C48.9688 17.8385 48.9036 17.8802 48.8672 17.9062C48.8255 17.9427 48.7656 17.9844 48.6875 18.0312C48.5781 18.0885 48.5104 18.1302 48.4844 18.1562C48.4583 18.1823 48.4375 18.1979 48.4219 18.2031C48.2969 18.3438 48.1745 18.4609 48.0547 18.5547C47.9453 18.638 47.8281 18.7552 47.7031 18.9062C47.6615 18.9375 47.6198 18.9688 47.5781 19C47.5365 19.0312 47.5 19.0729 47.4688 19.125C47.375 19.1875 47.2995 19.25 47.2422 19.3125C47.1849 19.375 47.1198 19.4479 47.0469 19.5312C46.9844 19.5625 46.9167 19.6068 46.8438 19.6641C46.7552 19.7318 46.6771 19.7812 46.6094 19.8125C46.5833 19.8281 46.5391 19.8516 46.4766 19.8828C46.4245 19.9089 46.375 19.9219 46.3281 19.9219C46.2083 19.9427 46.0938 19.9323 45.9844 19.8906C45.8854 19.8542 45.7865 19.8229 45.6875 19.7969C45.6458 19.7344 45.5938 19.6823 45.5312 19.6406C45.4375 19.526 45.3698 19.3906 45.3281 19.2344C45.2865 19.0781 45.2448 18.9115 45.2031 18.7344C45.1094 18.7969 45.0312 18.8646 44.9688 18.9375C44.9062 19.0156 44.8125 19.0833 44.6875 19.1406C44.5833 19.2396 44.4766 19.3385 44.3672 19.4375C44.2578 19.5312 44.1432 19.6224 44.0234 19.7109C43.9089 19.7995 43.7917 19.8932 43.6719 19.9922C43.5521 20.0859 43.4323 20.1823 43.3125 20.2812C43.2292 20.3646 43.1719 20.3958 43.1406 20.375C43.0469 20.4896 42.8802 20.526 42.6406 20.4844C42.5573 20.4427 42.4635 20.4062 42.3594 20.375C42.2865 20.3542 42.2031 20.3229 42.1094 20.2812C41.9323 20.25 41.7839 20.1719 41.6641 20.0469C41.5443 19.9219 41.4427 19.776 41.3594 19.6094C41.3281 19.5208 41.3047 19.4427 41.2891 19.375C41.2839 19.3385 41.276 19.2995 41.2656 19.2578C41.2552 19.2161 41.2448 19.1719 41.2344 19.125C41.2292 19.0365 41.2135 18.9661 41.1875 18.9141C41.1667 18.8568 41.1667 18.8021 41.1875 18.75C41.1667 18.724 41.1615 18.6901 41.1719 18.6484C41.1823 18.5964 41.1875 18.5573 41.1875 18.5312C41.1771 18.3854 41.1901 18.2292 41.2266 18.0625C41.263 17.8958 41.3125 17.7448 41.375 17.6094C41.4062 17.5573 41.4479 17.5052 41.5 17.4531C41.526 17.4219 41.5417 17.3906 41.5469 17.3594C41.5521 17.3333 41.5677 17.3073 41.5938 17.2812C41.6198 17.25 41.651 17.2188 41.6875 17.1875C41.7396 17.1458 41.776 17.1146 41.7969 17.0938C41.8229 17.0573 41.849 17.0234 41.875 16.9922C41.9062 16.9557 41.9401 16.9245 41.9766 16.8984C42.013 16.8724 42.0469 16.8438 42.0781 16.8125C42.1094 16.7812 42.1406 16.75 42.1719 16.7188C42.2083 16.6823 42.237 16.6458 42.2578 16.6094C42.2839 16.5677 42.3229 16.5365 42.375 16.5156C42.4167 16.4427 42.4635 16.3828 42.5156 16.3359C42.5677 16.2891 42.625 16.2396 42.6875 16.1875C42.8646 15.974 43.0833 15.7917 43.3438 15.6406C43.6094 15.4896 43.8438 15.3229 44.0469 15.1406C44.1198 15.1094 44.1823 15.0729 44.2344 15.0312C44.2865 14.9896 44.3385 14.9479 44.3906 14.9062C44.5208 14.7917 44.6615 14.7552 44.8125 14.7969L45.2188 14.9062C45.3229 15 45.4245 15.0938 45.5234 15.1875C45.6224 15.2812 45.7083 15.3854 45.7812 15.5C45.8177 15.4948 45.8568 15.4922 45.8984 15.4922C45.9401 15.487 45.9844 15.487 46.0312 15.4922C46.125 15.5026 46.224 15.4948 46.3281 15.4688C46.3594 15.4688 46.3906 15.4609 46.4219 15.4453C46.4531 15.4297 46.4792 15.4219 46.5 15.4219C46.6562 15.474 46.7344 15.5521 46.7344 15.6562ZM44.6719 15.8906C44.3906 16.026 44.1354 16.1849 43.9062 16.3672C43.6771 16.5495 43.4583 16.7448 43.25 16.9531C43.224 16.9792 43.1953 17.0052 43.1641 17.0312C43.138 17.0521 43.112 17.0755 43.0859 17.1016C43.0599 17.1224 43.0339 17.1458 43.0078 17.1719C42.9818 17.1979 42.9583 17.224 42.9375 17.25C42.8958 17.3021 42.8568 17.3646 42.8203 17.4375C42.7839 17.5104 42.75 17.5781 42.7188 17.6406C42.7083 17.6615 42.6979 17.6823 42.6875 17.7031C42.6771 17.7188 42.6667 17.7318 42.6562 17.7422C42.6458 17.7526 42.6354 17.7656 42.625 17.7812C42.6146 17.7969 42.6042 17.8125 42.5938 17.8281C42.5729 17.8802 42.5651 17.9323 42.5703 17.9844C42.5755 18.0208 42.5781 18.0781 42.5781 18.1562V18.3125C42.5781 18.3438 42.5833 18.3958 42.5938 18.4688C42.625 18.5833 42.6406 18.6979 42.6406 18.8125C42.6406 18.8958 42.6484 18.9974 42.6641 19.1172C42.6797 19.237 42.7188 19.3177 42.7812 19.3594C42.849 19.401 42.9141 19.4115 42.9766 19.3906C43.0495 19.3646 43.1094 19.349 43.1562 19.3438C43.5208 19.0625 43.8646 18.7682 44.1875 18.4609C44.5104 18.1536 44.7969 17.8073 45.0469 17.4219C45.026 17.1667 45.0234 16.9036 45.0391 16.6328C45.0547 16.3776 45.0312 16.1406 44.9688 15.9219C44.9271 15.8958 44.8776 15.888 44.8203 15.8984C44.7786 15.9036 44.7292 15.901 44.6719 15.8906ZM50.6719 14.5938C50.7552 14.5729 50.8021 14.5703 50.8125 14.5859C50.8229 14.6016 50.8438 14.6094 50.875 14.6094C50.9167 14.6667 50.9219 14.75 50.8906 14.8594C50.8542 15.026 50.7812 15.1849 50.6719 15.3359C50.5625 15.487 50.4792 15.6354 50.4219 15.7812C50.3854 15.8542 50.3516 15.9193 50.3203 15.9766C50.2943 16.0286 50.2708 16.0755 50.25 16.1172C50.2292 16.1536 50.2083 16.1927 50.1875 16.2344C50.1719 16.276 50.1562 16.3177 50.1406 16.3594C50.0885 16.474 50.0365 16.6016 49.9844 16.7422C49.9323 16.8828 49.8802 17.026 49.8281 17.1719L49.7344 17.375C49.6823 17.4896 49.6406 17.5911 49.6094 17.6797C49.5781 17.7682 49.5573 17.8802 49.5469 18.0156V18.4375C49.5573 18.5104 49.5651 18.5859 49.5703 18.6641C49.5755 18.7422 49.5807 18.8229 49.5859 18.9062C49.5964 19.0781 49.6302 19.2188 49.6875 19.3281C49.8177 19.2656 49.9583 19.1589 50.1094 19.0078C50.1823 18.9349 50.25 18.8698 50.3125 18.8125C50.3802 18.75 50.4427 18.6979 50.5 18.6562C50.5729 18.5521 50.6536 18.4557 50.7422 18.3672C50.8359 18.2734 50.9115 18.1719 50.9688 18.0625C51.0938 17.9583 51.1771 17.8229 51.2188 17.6562C51.2708 17.599 51.3203 17.5339 51.3672 17.4609C51.3932 17.4245 51.4167 17.3906 51.4375 17.3594C51.4635 17.3229 51.4896 17.2865 51.5156 17.25C51.5938 17.1406 51.6615 17.0104 51.7188 16.8594C51.75 16.7708 51.763 16.6875 51.7578 16.6094C51.7526 16.5677 51.75 16.526 51.75 16.4844C51.75 16.4427 51.75 16.401 51.75 16.3594C51.7552 16.2708 51.7708 16.1823 51.7969 16.0938C51.8177 16.0208 51.8229 15.9375 51.8125 15.8438C51.8281 15.8177 51.8464 15.7734 51.8672 15.7109C51.888 15.6484 51.9062 15.599 51.9219 15.5625C51.9427 15.5104 51.9818 15.4531 52.0391 15.3906C52.0964 15.3281 52.151 15.2708 52.2031 15.2188C52.2396 15.1719 52.2734 15.125 52.3047 15.0781C52.3411 15.0312 52.375 14.9844 52.4062 14.9375C52.4635 14.849 52.5417 14.776 52.6406 14.7188L52.8281 14.6406C52.9062 14.6042 52.9688 14.5833 53.0156 14.5781C53.0938 14.5677 53.1979 14.5443 53.3281 14.5078C53.4635 14.4661 53.5677 14.4583 53.6406 14.4844C53.6823 14.4896 53.7214 14.513 53.7578 14.5547C53.7943 14.5859 53.8385 14.5833 53.8906 14.5469C53.974 14.6354 54.0156 14.7135 54.0156 14.7812C54.0156 14.8438 53.9948 14.9115 53.9531 14.9844C53.8854 15.0833 53.849 15.1432 53.8438 15.1641C53.8385 15.1745 53.8333 15.1875 53.8281 15.2031C53.8229 15.2135 53.8177 15.224 53.8125 15.2344C53.7188 15.3906 53.625 15.5625 53.5312 15.75C53.4375 15.9375 53.3594 16.1146 53.2969 16.2812C53.401 16.3333 53.5391 16.3568 53.7109 16.3516C53.8828 16.3464 54.0365 16.3281 54.1719 16.2969C54.1927 16.2917 54.2109 16.2865 54.2266 16.2812C54.2474 16.276 54.2682 16.2708 54.2891 16.2656C54.3099 16.2604 54.3281 16.2552 54.3438 16.25C54.3646 16.2448 54.3854 16.2396 54.4062 16.2344C54.474 16.2135 54.5755 16.1953 54.7109 16.1797C54.8203 16.1641 54.9219 16.1354 55.0156 16.0938C55.1354 16.0312 55.2083 16 55.2344 16C55.2708 16 55.3073 15.9896 55.3438 15.9688C55.4427 15.9427 55.5339 15.9167 55.6172 15.8906C55.7005 15.8646 55.776 15.8385 55.8438 15.8125C55.8802 15.8021 55.9167 15.7917 55.9531 15.7812C55.9896 15.7656 56.026 15.7474 56.0625 15.7266C56.1354 15.6849 56.2031 15.6771 56.2656 15.7031C56.2865 15.724 56.2943 15.7604 56.2891 15.8125C56.2839 15.8594 56.2969 15.9115 56.3281 15.9688C56.2448 16.0365 56.1823 16.0677 56.1406 16.0625C56.0573 16.1042 55.9714 16.1432 55.8828 16.1797C55.7943 16.2161 55.7005 16.2526 55.6016 16.2891L55.0469 16.4844C54.9219 16.5417 54.8385 16.5651 54.7969 16.5547C54.7604 16.5443 54.7135 16.5521 54.6562 16.5781C54.4844 16.6562 54.3359 16.7135 54.2109 16.75C54.1068 16.7812 54.0156 16.8177 53.9375 16.8594C53.8958 16.8906 53.8672 16.9141 53.8516 16.9297C53.8255 16.9557 53.7917 16.974 53.75 16.9844C53.5729 17.0156 53.4219 17.0286 53.2969 17.0234C53.1667 17.0182 53.0312 17.0521 52.8906 17.125C52.8594 17.1875 52.8177 17.2578 52.7656 17.3359C52.7135 17.4141 52.6562 17.4792 52.5938 17.5312C52.5417 17.6354 52.487 17.724 52.4297 17.7969C52.3724 17.8698 52.3073 17.9479 52.2344 18.0312C52.1406 18.1146 52.0469 18.2031 51.9531 18.2969C51.8594 18.3906 51.7708 18.4792 51.6875 18.5625C51.5417 18.8021 51.3724 19.0234 51.1797 19.2266C50.987 19.4297 50.7865 19.6302 50.5781 19.8281C50.526 19.8333 50.4766 19.8568 50.4297 19.8984C50.3932 19.9297 50.3438 19.9583 50.2812 19.9844C50.2135 20.0052 50.1589 20.0208 50.1172 20.0312C50.0807 20.0469 50.0573 20.0573 50.0469 20.0625C50.026 20.0677 49.9948 20.0833 49.9531 20.1094C49.8802 20.1406 49.8255 20.1693 49.7891 20.1953C49.7578 20.2161 49.7344 20.2344 49.7188 20.25C49.6927 20.2708 49.6615 20.2812 49.625 20.2812C49.599 20.2812 49.5729 20.3021 49.5469 20.3438C49.4167 20.3177 49.3385 20.3333 49.3125 20.3906C49.2708 20.3906 49.2292 20.3958 49.1875 20.4062C49.1562 20.4167 49.1198 20.4167 49.0781 20.4062C49.0469 20.3802 49.0234 20.3568 49.0078 20.3359C48.987 20.3047 48.9688 20.2812 48.9531 20.2656C48.7969 20.2031 48.7031 20.1354 48.6719 20.0625C48.6354 19.9844 48.5885 19.9271 48.5312 19.8906C48.4844 19.7812 48.4557 19.6562 48.4453 19.5156C48.4401 19.4531 48.4349 19.3906 48.4297 19.3281C48.4245 19.2604 48.4167 19.1927 48.4062 19.125C48.401 19.1042 48.3958 19.0859 48.3906 19.0703C48.3854 19.0495 48.3802 19.0286 48.375 19.0078C48.3698 18.987 48.3646 18.9688 48.3594 18.9531C48.3542 18.9323 48.349 18.9115 48.3438 18.8906C48.3229 18.8073 48.3151 18.724 48.3203 18.6406C48.3255 18.5625 48.3125 18.4792 48.2812 18.3906C48.3333 18.224 48.3385 18.0625 48.2969 17.9062C48.3177 17.8333 48.3438 17.737 48.375 17.6172C48.4062 17.4974 48.4271 17.3958 48.4375 17.3125C48.4635 17.0938 48.5026 16.9115 48.5547 16.7656C48.612 16.6198 48.6979 16.4375 48.8125 16.2188C48.8542 16.125 48.901 16.0312 48.9531 15.9375C48.9792 15.8906 49.0052 15.8438 49.0312 15.7969C49.0573 15.7448 49.0833 15.6927 49.1094 15.6406C49.1354 15.5885 49.1562 15.5469 49.1719 15.5156C49.1927 15.4792 49.2057 15.4531 49.2109 15.4375C49.2318 15.401 49.2656 15.3438 49.3125 15.2656L49.3906 15.125C49.4219 15.0729 49.4583 15.026 49.5 14.9844C49.5833 14.901 49.6615 14.8359 49.7344 14.7891C49.8073 14.7422 49.8958 14.6927 50 14.6406C50.099 14.6615 50.2266 14.6432 50.3828 14.5859C50.5391 14.5286 50.6354 14.5312 50.6719 14.5938ZM58.0156 12.1719L58.1719 12.2188C58.1927 12.2448 58.2031 12.276 58.2031 12.3125C58.2031 12.3385 58.2188 12.3646 58.25 12.3906C58.2292 12.4844 58.2109 12.5807 58.1953 12.6797C58.1797 12.7786 58.1719 12.875 58.1719 12.9688C58.1719 13.0052 58.1849 13.0417 58.2109 13.0781C58.237 13.1146 58.25 13.1458 58.25 13.1719C58.1979 13.2917 58.1589 13.3646 58.1328 13.3906C58.1068 13.4167 58.0938 13.4427 58.0938 13.4688C58.0417 13.4896 58.0026 13.5208 57.9766 13.5625C57.9505 13.6042 57.9062 13.625 57.8438 13.625C57.8229 13.6562 57.7995 13.6797 57.7734 13.6953C57.7422 13.7161 57.724 13.7448 57.7188 13.7812C57.5469 13.8542 57.3594 13.849 57.1562 13.7656C57.099 13.6667 57.026 13.599 56.9375 13.5625C56.8021 13.3646 56.7969 13.1302 56.9219 12.8594C56.9427 12.8073 56.9661 12.7526 56.9922 12.6953C57.0182 12.638 57.0417 12.599 57.0625 12.5781C57.1719 12.5 57.2552 12.4479 57.3125 12.4219C57.3333 12.4115 57.3542 12.401 57.375 12.3906C57.401 12.375 57.4245 12.3594 57.4453 12.3438C57.4818 12.3177 57.5365 12.2917 57.6094 12.2656C57.6406 12.2552 57.6693 12.25 57.6953 12.25C57.737 12.25 57.776 12.2396 57.8125 12.2188C57.8333 12.2135 57.8516 12.2083 57.8672 12.2031C57.888 12.1979 57.9062 12.1927 57.9219 12.1875C57.9635 12.1771 57.9948 12.1719 58.0156 12.1719ZM55.6719 19.0938L55.75 19.125C55.8438 19.0833 55.9583 19.0677 56.0938 19.0781C56.2344 19.0885 56.3438 19.0677 56.4219 19.0156C56.474 18.974 56.5104 18.9427 56.5312 18.9219C56.5625 18.8906 56.599 18.8802 56.6406 18.8906C56.8073 18.8281 56.9479 18.7656 57.0625 18.7031C57.1823 18.6406 57.3073 18.5938 57.4375 18.5625C57.5208 18.5312 57.5938 18.4844 57.6562 18.4219C57.8698 18.3542 58.0495 18.2578 58.1953 18.1328C58.3464 18.0078 58.5104 17.875 58.6875 17.7344C58.8333 17.651 58.9557 17.5781 59.0547 17.5156C59.1536 17.4531 59.2604 17.375 59.375 17.2812C59.401 17.224 59.4297 17.1849 59.4609 17.1641C59.487 17.1484 59.5156 17.1146 59.5469 17.0625C59.7344 17.0625 59.8385 17.1354 59.8594 17.2812C59.8073 17.3958 59.737 17.4896 59.6484 17.5625C59.5547 17.6406 59.474 17.724 59.4062 17.8125C59.3229 17.8646 59.2552 17.9115 59.2031 17.9531C59.151 17.9948 59.099 18.0573 59.0469 18.1406C59.0417 18.1406 59.0104 18.1641 58.9531 18.2109C58.901 18.2578 58.8698 18.2812 58.8594 18.2812C58.776 18.3802 58.7135 18.4401 58.6719 18.4609C58.6302 18.4818 58.5573 18.5365 58.4531 18.625C58.3854 18.7396 58.2917 18.8333 58.1719 18.9062C57.9479 19.1198 57.7109 19.2995 57.4609 19.4453C57.3307 19.5182 57.2083 19.5938 57.0938 19.6719C56.9792 19.7448 56.8698 19.8177 56.7656 19.8906C56.7135 19.9219 56.6771 19.9505 56.6562 19.9766C56.6354 20.0026 56.599 20.0365 56.5469 20.0781C56.4948 20.1198 56.4141 20.1615 56.3047 20.2031C56.1953 20.2448 56.099 20.2812 56.0156 20.3125C55.9479 20.3542 55.8906 20.3854 55.8438 20.4062C55.6094 20.4167 55.4323 20.3802 55.3125 20.2969C55.1771 20.224 55.0729 20.1667 55 20.125C54.9271 20.0833 54.8646 20.0156 54.8125 19.9219C54.6927 19.8646 54.6224 19.7682 54.6016 19.6328C54.5911 19.5599 54.5781 19.4896 54.5625 19.4219C54.5469 19.3542 54.5312 19.2865 54.5156 19.2188C54.5052 19.1667 54.4948 19.1068 54.4844 19.0391C54.474 18.9714 54.474 18.901 54.4844 18.8281C54.5104 18.7083 54.526 18.5859 54.5312 18.4609C54.5365 18.3464 54.5625 18.2344 54.6094 18.125C54.6562 18.0208 54.6849 17.9062 54.6953 17.7812C54.7057 17.6562 54.7344 17.5417 54.7812 17.4375C54.849 17.3333 54.8776 17.276 54.8672 17.2656C54.862 17.2604 54.8646 17.2448 54.875 17.2188L54.9453 17.125C54.9609 17.1042 54.9844 17.0677 55.0156 17.0156L55.1094 16.7812C55.1562 16.6927 55.2031 16.6198 55.25 16.5625C55.2969 16.5 55.3385 16.4115 55.375 16.2969C55.401 16.224 55.4297 16.1667 55.4609 16.125C55.4818 16.099 55.5 16.0729 55.5156 16.0469C55.5365 16.0156 55.5573 15.9844 55.5781 15.9531C55.6042 15.901 55.6302 15.8359 55.6562 15.7578C55.6667 15.7214 55.6771 15.6875 55.6875 15.6562C55.7031 15.6198 55.7188 15.5833 55.7344 15.5469C55.7656 15.4635 55.8047 15.3802 55.8516 15.2969C55.8984 15.2135 55.9479 15.1302 56 15.0469C56.0417 14.9635 56.0781 14.901 56.1094 14.8594C56.1406 14.8177 56.2031 14.7917 56.2969 14.7812C56.3438 14.7708 56.3906 14.7734 56.4375 14.7891C56.4948 14.8047 56.5469 14.8021 56.5938 14.7812C56.7292 14.7188 56.8229 14.6875 56.875 14.6875C56.9271 14.6875 56.9635 14.6719 56.9844 14.6406C57.0938 14.6458 57.1771 14.6823 57.2344 14.75C57.2917 14.8125 57.3542 14.875 57.4219 14.9375C57.3594 15.2396 57.2891 15.4714 57.2109 15.6328C57.1328 15.7943 57.0469 15.9635 56.9531 16.1406C56.901 16.224 56.849 16.3177 56.7969 16.4219C56.7448 16.526 56.6979 16.6198 56.6562 16.7031C56.6042 16.8177 56.5495 16.9193 56.4922 17.0078C56.4245 17.112 56.375 17.2135 56.3438 17.3125L56.2734 17.4609C56.2422 17.5234 56.2188 17.5729 56.2031 17.6094C56.1927 17.6458 56.1797 17.6823 56.1641 17.7188C56.1536 17.75 56.138 17.7786 56.1172 17.8047C56.0964 17.8307 56.0781 17.8594 56.0625 17.8906C56.0469 17.9167 56.0312 17.9427 56.0156 17.9688C55.9844 18.0312 55.9531 18.0938 55.9219 18.1562C55.8906 18.2188 55.8646 18.2865 55.8438 18.3594C55.7917 18.474 55.7604 18.5495 55.75 18.5859C55.7448 18.5964 55.7396 18.6094 55.7344 18.625C55.7292 18.6354 55.724 18.6458 55.7188 18.6562C55.6979 18.7708 55.6667 18.8646 55.625 18.9375C55.5833 19.0104 55.599 19.0625 55.6719 19.0938ZM63.7656 16.3125C63.8698 16.3385 63.9453 16.375 63.9922 16.4219C64.0286 16.4583 64.0469 16.5 64.0469 16.5469C63.9635 16.6615 63.9141 16.737 63.8984 16.7734C63.8828 16.8099 63.849 16.8385 63.7969 16.8594C63.7292 16.9635 63.6562 17.0625 63.5781 17.1562C63.5052 17.2448 63.4245 17.3307 63.3359 17.4141C63.1745 17.5703 63.0156 17.75 62.8594 17.9531C62.7917 18.0208 62.7448 18.0729 62.7188 18.1094C62.6927 18.1458 62.6458 18.1979 62.5781 18.2656C62.4531 18.3542 62.349 18.4453 62.2656 18.5391C62.2188 18.5911 62.1693 18.6406 62.1172 18.6875C62.0703 18.7292 62.0208 18.7708 61.9688 18.8125C61.9427 18.8333 61.9167 18.8542 61.8906 18.875C61.8698 18.8906 61.8464 18.9089 61.8203 18.9297C61.7995 18.9505 61.776 18.9714 61.75 18.9922C61.724 19.013 61.6979 19.0365 61.6719 19.0625C61.6302 19.1042 61.5833 19.1458 61.5312 19.1875C61.5104 19.2031 61.487 19.2214 61.4609 19.2422C61.4401 19.2578 61.4167 19.276 61.3906 19.2969C61.3281 19.3698 61.2656 19.4427 61.2031 19.5156C61.1406 19.5885 61.0781 19.6667 61.0156 19.75C60.9062 19.8021 60.8021 19.8646 60.7031 19.9375C60.6094 20.0052 60.5 20.0677 60.375 20.125C60.3229 20.1562 60.2734 20.2057 60.2266 20.2734C60.1849 20.3359 60.125 20.3802 60.0469 20.4062C59.9635 20.4375 59.875 20.4453 59.7812 20.4297C59.6875 20.4141 59.6094 20.3906 59.5469 20.3594C59.4792 20.3125 59.4375 20.2865 59.4219 20.2812C59.3802 20.2708 59.3542 20.2656 59.3438 20.2656C59.2448 20.125 59.1771 19.9766 59.1406 19.8203C59.1198 19.737 59.0964 19.6536 59.0703 19.5703C59.0495 19.487 59.026 19.401 59 19.3125C58.9792 19.2604 58.9635 19.2057 58.9531 19.1484C58.9427 19.0911 58.9323 19.026 58.9219 18.9531L58.8984 18.8281C58.8932 18.8073 58.888 18.7865 58.8828 18.7656C58.8776 18.7396 58.8698 18.7135 58.8594 18.6875C58.8385 18.6354 58.8177 18.5807 58.7969 18.5234C58.776 18.4661 58.7604 18.4062 58.75 18.3438C58.7292 18.2188 58.7214 18.0964 58.7266 17.9766C58.7318 17.8568 58.7448 17.7396 58.7656 17.625C58.8281 17.2812 58.9193 16.9531 59.0391 16.6406C59.1589 16.3281 59.2812 16.0312 59.4062 15.75C59.4323 15.6198 59.4609 15.5208 59.4922 15.4531C59.5234 15.3854 59.5573 15.2917 59.5938 15.1719C59.6406 15.1146 59.6771 15.0312 59.7031 14.9219C59.7135 14.875 59.724 14.8281 59.7344 14.7812C59.75 14.7344 59.7656 14.6875 59.7812 14.6406C59.7969 14.599 59.8151 14.5573 59.8359 14.5156C59.8568 14.4688 59.8776 14.4193 59.8984 14.3672C59.9401 14.2734 59.974 14.1771 60 14.0781C60.0365 13.9583 60.0651 13.8542 60.0859 13.7656C60.0964 13.7135 60.1094 13.6641 60.125 13.6172C60.1458 13.5703 60.1667 13.526 60.1875 13.4844C60.2292 13.375 60.2682 13.2682 60.3047 13.1641C60.3464 13.0599 60.3854 12.9583 60.4219 12.8594C60.4583 12.7604 60.4948 12.6615 60.5312 12.5625C60.5729 12.4635 60.6146 12.3646 60.6562 12.2656C60.6667 12.2344 60.6771 12.2031 60.6875 12.1719C60.6979 12.1406 60.7083 12.1094 60.7188 12.0781C60.7396 12.0208 60.7708 11.9635 60.8125 11.9062C60.8385 11.8333 60.8646 11.7786 60.8906 11.7422C60.9323 11.6797 60.9635 11.6302 60.9844 11.5938C60.9844 11.5365 61.0026 11.4974 61.0391 11.4766C61.0651 11.4609 61.0938 11.4271 61.125 11.375C61.1823 11.2865 61.2214 11.2031 61.2422 11.125C61.263 11.0469 61.3021 10.9635 61.3594 10.875L61.5469 10.6406C61.5573 10.6198 61.5677 10.599 61.5781 10.5781C61.5885 10.5573 61.599 10.5365 61.6094 10.5156C61.6354 10.474 61.6667 10.4375 61.7031 10.4062C61.8229 10.2188 61.9479 10.0312 62.0781 9.84375L62.5 9.25C62.5938 9.10417 62.6979 8.96615 62.8125 8.83594C62.9271 8.70573 63.0469 8.57812 63.1719 8.45312C63.2135 8.40104 63.263 8.34375 63.3203 8.28125C63.3776 8.21875 63.4375 8.18229 63.5 8.17188C63.599 8.16146 63.7031 8.17188 63.8125 8.20312C63.8438 8.25521 63.8724 8.3099 63.8984 8.36719C63.9245 8.42448 63.9479 8.48958 63.9688 8.5625C63.9896 8.88542 63.9792 9.19792 63.9375 9.5C63.8958 9.80208 63.849 10.099 63.7969 10.3906C63.7865 10.4583 63.7839 10.5078 63.7891 10.5391C63.7943 10.5703 63.7917 10.6198 63.7812 10.6875C63.7604 10.75 63.7344 10.8307 63.7031 10.9297C63.6719 11.0286 63.6458 11.1198 63.625 11.2031C63.625 11.3438 63.5938 11.474 63.5312 11.5938C63.4688 11.7083 63.4271 11.8229 63.4062 11.9375C63.375 11.9583 63.3568 11.9922 63.3516 12.0391C63.3464 12.0859 63.3281 12.1198 63.2969 12.1406C63.2708 12.2604 63.237 12.3646 63.1953 12.4531C63.1484 12.5469 63.1094 12.6406 63.0781 12.7344C63 12.8438 62.9219 12.9505 62.8438 13.0547C62.7656 13.1589 62.6849 13.263 62.6016 13.3672C62.5182 13.4661 62.4375 13.5703 62.3594 13.6797C62.2865 13.7839 62.2135 13.8906 62.1406 14C61.9583 14.276 61.7682 14.5365 61.5703 14.7812C61.3724 15.026 61.1823 15.2865 61 15.5625C60.8542 15.6927 60.7396 15.8229 60.6562 15.9531C60.5677 16.0938 60.4479 16.224 60.2969 16.3438C60.2708 16.4479 60.2448 16.5573 60.2188 16.6719C60.1979 16.7865 60.1745 16.9036 60.1484 17.0234C60.1276 17.1432 60.1042 17.2656 60.0781 17.3906C60.0521 17.5156 60.026 17.6406 60 17.7656C59.9948 17.8333 59.9792 17.9036 59.9531 17.9766C59.9427 18.013 59.9323 18.0495 59.9219 18.0859C59.9115 18.1172 59.901 18.151 59.8906 18.1875C59.8698 18.2604 59.8646 18.349 59.875 18.4531C59.8802 18.5469 59.8646 18.6354 59.8281 18.7188C59.8438 18.7604 59.8568 18.8203 59.8672 18.8984C59.8724 18.9661 59.8906 19.026 59.9219 19.0781C59.9792 19.1719 60.0417 19.2188 60.1094 19.2188C60.1875 19.1771 60.2292 19.1589 60.2344 19.1641C60.2396 19.1693 60.2552 19.1667 60.2812 19.1562C60.3333 19.125 60.3854 19.0833 60.4375 19.0312C60.4896 18.9792 60.5365 18.9323 60.5781 18.8906C60.6354 18.8646 60.6745 18.8411 60.6953 18.8203C60.7109 18.8047 60.7396 18.7812 60.7812 18.75C60.8125 18.7292 60.8411 18.7135 60.8672 18.7031C60.8932 18.6927 60.9167 18.6771 60.9375 18.6562C61.0885 18.5 61.2292 18.3828 61.3594 18.3047C61.4948 18.2266 61.6042 18.1302 61.6875 18.0156L61.9688 17.8438C62.026 17.8125 62.0807 17.7682 62.1328 17.7109C62.1797 17.6536 62.2396 17.6094 62.3125 17.5781C62.3438 17.5365 62.3646 17.5104 62.375 17.5C62.3854 17.4896 62.4062 17.4635 62.4375 17.4219C62.5 17.3802 62.5625 17.3385 62.625 17.2969C62.6875 17.2552 62.7474 17.2135 62.8047 17.1719C62.862 17.1302 62.9219 17.0885 62.9844 17.0469C63.0521 17.0052 63.1198 16.9635 63.1875 16.9219C63.2083 16.8698 63.2422 16.8281 63.2891 16.7969C63.3359 16.7656 63.375 16.7344 63.4062 16.7031C63.4375 16.6719 63.4635 16.638 63.4844 16.6016C63.5104 16.5599 63.5469 16.5365 63.5938 16.5312C63.599 16.4844 63.6224 16.4479 63.6641 16.4219C63.7057 16.3958 63.7396 16.3594 63.7656 16.3125ZM62.9219 10.4844H62.9062C62.8125 10.5052 62.7474 10.5521 62.7109 10.625C62.6745 10.6979 62.6406 10.7812 62.6094 10.875C62.5885 10.9167 62.5677 10.9531 62.5469 10.9844C62.5312 11.0156 62.5182 11.0417 62.5078 11.0625C62.487 11.099 62.4792 11.1615 62.4844 11.25C62.3229 11.5156 62.1693 11.7891 62.0234 12.0703C61.8776 12.3464 61.737 12.6302 61.6016 12.9219C61.4714 13.2135 61.3385 13.5078 61.2031 13.8047C61.0677 14.0964 60.9323 14.3906 60.7969 14.6875C61.0104 14.474 61.2057 14.224 61.3828 13.9375C61.4714 13.7917 61.5625 13.6562 61.6562 13.5312C61.7552 13.4062 61.8542 13.2917 61.9531 13.1875C62.026 13.0104 62.1016 12.8385 62.1797 12.6719C62.263 12.5052 62.349 12.3464 62.4375 12.1953C62.6094 11.9036 62.7448 11.5573 62.8438 11.1562C62.8021 11.026 62.8073 10.9141 62.8594 10.8203C62.9115 10.7266 62.9323 10.6146 62.9219 10.4844ZM66.375 12.1719L66.5312 12.2188C66.5521 12.2448 66.5625 12.276 66.5625 12.3125C66.5625 12.3385 66.5781 12.3646 66.6094 12.3906C66.5885 12.4844 66.5703 12.5807 66.5547 12.6797C66.5391 12.7786 66.5312 12.875 66.5312 12.9688C66.5312 13.0052 66.5443 13.0417 66.5703 13.0781C66.5964 13.1146 66.6094 13.1458 66.6094 13.1719C66.5573 13.2917 66.5182 13.3646 66.4922 13.3906C66.4661 13.4167 66.4531 13.4427 66.4531 13.4688C66.401 13.4896 66.362 13.5208 66.3359 13.5625C66.3099 13.6042 66.2656 13.625 66.2031 13.625C66.1823 13.6562 66.1589 13.6797 66.1328 13.6953C66.1016 13.7161 66.0833 13.7448 66.0781 13.7812C65.9062 13.8542 65.7188 13.849 65.5156 13.7656C65.4583 13.6667 65.3854 13.599 65.2969 13.5625C65.1615 13.3646 65.1562 13.1302 65.2812 12.8594C65.3021 12.8073 65.3255 12.7526 65.3516 12.6953C65.3776 12.638 65.401 12.599 65.4219 12.5781C65.5312 12.5 65.6146 12.4479 65.6719 12.4219C65.6927 12.4115 65.7135 12.401 65.7344 12.3906C65.7604 12.375 65.7839 12.3594 65.8047 12.3438C65.8411 12.3177 65.8958 12.2917 65.9688 12.2656C66 12.2552 66.0286 12.25 66.0547 12.25C66.0964 12.25 66.1354 12.2396 66.1719 12.2188C66.1927 12.2135 66.2109 12.2083 66.2266 12.2031C66.2474 12.1979 66.2656 12.1927 66.2812 12.1875C66.3229 12.1771 66.3542 12.1719 66.375 12.1719ZM64.0312 19.0938L64.1094 19.125C64.2031 19.0833 64.3177 19.0677 64.4531 19.0781C64.5938 19.0885 64.7031 19.0677 64.7812 19.0156C64.8333 18.974 64.8698 18.9427 64.8906 18.9219C64.9219 18.8906 64.9583 18.8802 65 18.8906C65.1667 18.8281 65.3073 18.7656 65.4219 18.7031C65.5417 18.6406 65.6667 18.5938 65.7969 18.5625C65.8802 18.5312 65.9531 18.4844 66.0156 18.4219C66.2292 18.3542 66.4089 18.2578 66.5547 18.1328C66.7057 18.0078 66.8698 17.875 67.0469 17.7344C67.1927 17.651 67.3151 17.5781 67.4141 17.5156C67.513 17.4531 67.6198 17.375 67.7344 17.2812C67.7604 17.224 67.7891 17.1849 67.8203 17.1641C67.8464 17.1484 67.875 17.1146 67.9062 17.0625C68.0938 17.0625 68.1979 17.1354 68.2188 17.2812C68.1667 17.3958 68.0964 17.4896 68.0078 17.5625C67.9141 17.6406 67.8333 17.724 67.7656 17.8125C67.6823 17.8646 67.6146 17.9115 67.5625 17.9531C67.5104 17.9948 67.4583 18.0573 67.4062 18.1406C67.401 18.1406 67.3698 18.1641 67.3125 18.2109C67.2604 18.2578 67.2292 18.2812 67.2188 18.2812C67.1354 18.3802 67.0729 18.4401 67.0312 18.4609C66.9896 18.4818 66.9167 18.5365 66.8125 18.625C66.7448 18.7396 66.651 18.8333 66.5312 18.9062C66.3073 19.1198 66.0703 19.2995 65.8203 19.4453C65.6901 19.5182 65.5677 19.5938 65.4531 19.6719C65.3385 19.7448 65.2292 19.8177 65.125 19.8906C65.0729 19.9219 65.0365 19.9505 65.0156 19.9766C64.9948 20.0026 64.9583 20.0365 64.9062 20.0781C64.8542 20.1198 64.7734 20.1615 64.6641 20.2031C64.5547 20.2448 64.4583 20.2812 64.375 20.3125C64.3073 20.3542 64.25 20.3854 64.2031 20.4062C63.9688 20.4167 63.7917 20.3802 63.6719 20.2969C63.5365 20.224 63.4323 20.1667 63.3594 20.125C63.2865 20.0833 63.224 20.0156 63.1719 19.9219C63.0521 19.8646 62.9818 19.7682 62.9609 19.6328C62.9505 19.5599 62.9375 19.4896 62.9219 19.4219C62.9062 19.3542 62.8906 19.2865 62.875 19.2188C62.8646 19.1667 62.8542 19.1068 62.8438 19.0391C62.8333 18.9714 62.8333 18.901 62.8438 18.8281C62.8698 18.7083 62.8854 18.5859 62.8906 18.4609C62.8958 18.3464 62.9219 18.2344 62.9688 18.125C63.0156 18.0208 63.0443 17.9062 63.0547 17.7812C63.0651 17.6562 63.0938 17.5417 63.1406 17.4375C63.2083 17.3333 63.237 17.276 63.2266 17.2656C63.2214 17.2604 63.224 17.2448 63.2344 17.2188L63.3047 17.125C63.3203 17.1042 63.3438 17.0677 63.375 17.0156L63.4688 16.7812C63.5156 16.6927 63.5625 16.6198 63.6094 16.5625C63.6562 16.5 63.6979 16.4115 63.7344 16.2969C63.7604 16.224 63.7891 16.1667 63.8203 16.125C63.8411 16.099 63.8594 16.0729 63.875 16.0469C63.8958 16.0156 63.9167 15.9844 63.9375 15.9531C63.9635 15.901 63.9896 15.8359 64.0156 15.7578C64.026 15.7214 64.0365 15.6875 64.0469 15.6562C64.0625 15.6198 64.0781 15.5833 64.0938 15.5469C64.125 15.4635 64.1641 15.3802 64.2109 15.2969C64.2578 15.2135 64.3073 15.1302 64.3594 15.0469C64.401 14.9635 64.4375 14.901 64.4688 14.8594C64.5 14.8177 64.5625 14.7917 64.6562 14.7812C64.7031 14.7708 64.75 14.7734 64.7969 14.7891C64.8542 14.8047 64.9062 14.8021 64.9531 14.7812C65.0885 14.7188 65.1823 14.6875 65.2344 14.6875C65.2865 14.6875 65.3229 14.6719 65.3438 14.6406C65.4531 14.6458 65.5365 14.6823 65.5938 14.75C65.651 14.8125 65.7135 14.875 65.7812 14.9375C65.7188 15.2396 65.6484 15.4714 65.5703 15.6328C65.4922 15.7943 65.4062 15.9635 65.3125 16.1406C65.2604 16.224 65.2083 16.3177 65.1562 16.4219C65.1042 16.526 65.0573 16.6198 65.0156 16.7031C64.9635 16.8177 64.9089 16.9193 64.8516 17.0078C64.7839 17.112 64.7344 17.2135 64.7031 17.3125L64.6328 17.4609C64.6016 17.5234 64.5781 17.5729 64.5625 17.6094C64.5521 17.6458 64.5391 17.6823 64.5234 17.7188C64.513 17.75 64.4974 17.7786 64.4766 17.8047C64.4557 17.8307 64.4375 17.8594 64.4219 17.8906C64.4062 17.9167 64.3906 17.9427 64.375 17.9688C64.3438 18.0312 64.3125 18.0938 64.2812 18.1562C64.25 18.2188 64.224 18.2865 64.2031 18.3594C64.151 18.474 64.1198 18.5495 64.1094 18.5859C64.1042 18.5964 64.099 18.6094 64.0938 18.625C64.0885 18.6354 64.0833 18.6458 64.0781 18.6562C64.0573 18.7708 64.026 18.8646 63.9844 18.9375C63.9427 19.0104 63.9583 19.0625 64.0312 19.0938ZM74.8594 15.4844C74.9115 15.4896 74.9453 15.5104 74.9609 15.5469C74.9766 15.5781 75.0052 15.5938 75.0469 15.5938C75.0677 15.6927 75.0469 15.763 74.9844 15.8047C74.9219 15.8411 74.901 15.901 74.9219 15.9844C74.8281 16.0469 74.7135 16.0859 74.5781 16.1016C74.4375 16.1172 74.3333 16.1719 74.2656 16.2656C74.0833 16.3542 73.8932 16.4089 73.6953 16.4297C73.5964 16.4401 73.4922 16.4557 73.3828 16.4766C73.2786 16.4922 73.1719 16.5104 73.0625 16.5312C72.9479 16.6094 72.8776 16.651 72.8516 16.6562C72.8151 16.6615 72.776 16.6771 72.7344 16.7031C72.625 16.6615 72.5156 16.6406 72.4062 16.6406C72.2969 16.6406 72.1823 16.625 72.0625 16.5938C72.0052 16.6146 71.9453 16.625 71.8828 16.625C71.8203 16.625 71.7604 16.6354 71.7031 16.6562C71.6615 16.75 71.6406 16.8438 71.6406 16.9375C71.6406 17.0365 71.625 17.1302 71.5938 17.2188L71.5 17.4062L71.4766 17.5547C71.4661 17.6172 71.4531 17.6667 71.4375 17.7031C71.4167 17.7344 71.3932 17.7708 71.3672 17.8125C71.3411 17.8542 71.3281 17.901 71.3281 17.9531C71.2552 18.0469 71.2031 18.1432 71.1719 18.2422C71.1406 18.3568 71.0833 18.4479 71 18.5156C70.9688 18.625 70.9193 18.7083 70.8516 18.7656C70.7839 18.8281 70.7188 18.901 70.6562 18.9844C70.5417 19.1406 70.4401 19.276 70.3516 19.3906C70.263 19.5052 70.1458 19.6042 70 19.6875C69.9479 19.7708 69.8854 19.8281 69.8125 19.8594C69.7604 19.9115 69.7188 19.9635 69.6875 20.0156L69.375 20.2031C69.25 20.2812 69.1302 20.3333 69.0156 20.3594C68.8385 20.401 68.6667 20.3958 68.5 20.3438C68.3333 20.2917 68.1771 20.2188 68.0312 20.125C67.9323 20.1354 67.8568 20.1172 67.8047 20.0703C67.7526 20.0286 67.6823 19.9948 67.5938 19.9688C67.4792 19.8646 67.3542 19.7708 67.2188 19.6875C67.0781 19.599 66.9792 19.4844 66.9219 19.3438L66.8516 19C66.8307 18.8958 66.8073 18.7917 66.7812 18.6875C66.7604 18.599 66.7578 18.5 66.7734 18.3906C66.7891 18.2969 66.7917 18.1927 66.7812 18.0781C66.7812 18.0208 66.7812 17.9688 66.7812 17.9219C66.7812 17.8698 66.7786 17.8255 66.7734 17.7891C66.7682 17.7109 66.7917 17.6146 66.8438 17.5C66.875 17.4323 66.901 17.3698 66.9219 17.3125C66.9427 17.2552 66.9583 17.2057 66.9688 17.1641C66.9792 17.1224 66.9896 17.0833 67 17.0469C67.0104 17.0052 67.0208 16.9688 67.0312 16.9375C67.0469 16.9115 67.0625 16.8854 67.0781 16.8594C67.0938 16.8281 67.1094 16.7969 67.125 16.7656C67.1406 16.7344 67.1562 16.7057 67.1719 16.6797C67.1927 16.6484 67.2135 16.6198 67.2344 16.5938C67.2969 16.5 67.3698 16.4062 67.4531 16.3125C67.5365 16.2188 67.6198 16.1302 67.7031 16.0469C67.7604 15.9688 67.8177 15.901 67.875 15.8438C67.9688 15.75 68.0573 15.6719 68.1406 15.6094C68.224 15.5469 68.3177 15.4635 68.4219 15.3594C68.4427 15.3281 68.4688 15.3021 68.5 15.2812L68.5938 15.2188C68.6979 15.1562 68.7943 15.1042 68.8828 15.0625C68.9714 15.0208 69.0729 14.974 69.1875 14.9219C69.2865 14.875 69.3672 14.8464 69.4297 14.8359C69.4714 14.8255 69.513 14.8177 69.5547 14.8125C69.6016 14.8021 69.651 14.7917 69.7031 14.7812H69.8906C69.9479 14.7812 70 14.7708 70.0469 14.75C70.0156 14.6667 70.0521 14.6094 70.1562 14.5781C70.2604 14.5469 70.3385 14.5365 70.3906 14.5469C70.4948 14.5469 70.5781 14.5703 70.6406 14.6172C70.7031 14.6641 70.7604 14.7188 70.8125 14.7812C70.9167 14.8542 71.0312 14.9635 71.1562 15.1094C71.1823 15.1354 71.2083 15.151 71.2344 15.1562C71.2604 15.1615 71.2865 15.1771 71.3125 15.2031C71.3542 15.2656 71.3828 15.3229 71.3984 15.375C71.4141 15.4375 71.4479 15.4948 71.5 15.5469C71.5312 15.5677 71.5625 15.5938 71.5938 15.625C71.625 15.6562 71.6458 15.6979 71.6562 15.75C71.7656 15.7917 71.8646 15.8229 71.9531 15.8438C72 15.8646 72.0547 15.8698 72.1172 15.8594C72.1745 15.849 72.2396 15.849 72.3125 15.8594C72.3594 15.8646 72.4062 15.8776 72.4531 15.8984C72.4948 15.9141 72.5417 15.9219 72.5938 15.9219C72.6719 15.9167 72.7578 15.8958 72.8516 15.8594C72.9401 15.8281 73.0417 15.8229 73.1562 15.8438C73.3125 15.8802 73.4766 15.8646 73.6484 15.7969C73.8203 15.724 73.9948 15.6771 74.1719 15.6562C74.224 15.6562 74.2604 15.6536 74.2812 15.6484C74.3021 15.6432 74.3385 15.6406 74.3906 15.6406C74.4427 15.599 74.5104 15.5677 74.5938 15.5469C74.6771 15.526 74.7656 15.5052 74.8594 15.4844ZM70.3906 15.9531C70.2865 15.8594 70.2266 15.7995 70.2109 15.7734C70.1901 15.7422 70.1719 15.724 70.1562 15.7188C70.1094 15.6719 70.0573 15.6458 70 15.6406C69.9688 15.6354 69.9375 15.6302 69.9062 15.625C69.8802 15.6198 69.8542 15.6146 69.8281 15.6094C69.6615 15.5781 69.5234 15.5964 69.4141 15.6641C69.362 15.7005 69.3073 15.7344 69.25 15.7656C69.1979 15.7969 69.1458 15.8281 69.0938 15.8594C68.9271 15.9635 68.7812 16.0938 68.6562 16.25C68.625 16.3021 68.5911 16.3594 68.5547 16.4219C68.5182 16.4844 68.4896 16.5521 68.4688 16.625C68.4271 16.7083 68.3906 16.7839 68.3594 16.8516C68.3281 16.9193 68.3021 17 68.2812 17.0938C68.2292 17.1927 68.1979 17.2786 68.1875 17.3516C68.1823 17.388 68.1771 17.4219 68.1719 17.4531C68.1667 17.4792 68.1615 17.5052 68.1562 17.5312C68.151 17.5833 68.1432 17.638 68.1328 17.6953C68.1224 17.7474 68.112 17.8021 68.1016 17.8594C68.0755 17.9896 68.0625 18.0885 68.0625 18.1562C68.0729 18.1875 68.0885 18.2292 68.1094 18.2812C68.1302 18.3333 68.151 18.3698 68.1719 18.3906C68.1927 18.4427 68.2161 18.5 68.2422 18.5625C68.2682 18.625 68.2917 18.6719 68.3125 18.7031C68.3698 18.776 68.4375 18.8229 68.5156 18.8438C68.5573 18.8542 68.6016 18.8672 68.6484 18.8828C68.6953 18.8932 68.7448 18.9062 68.7969 18.9219C68.9115 18.9844 68.9896 19.0104 69.0312 19C69.0833 18.9896 69.1146 18.9844 69.125 18.9844C69.2656 18.9583 69.3854 18.901 69.4844 18.8125C69.5729 18.7292 69.6771 18.6562 69.7969 18.5938C69.8385 18.5312 69.8802 18.4661 69.9219 18.3984C69.9688 18.3307 70.0182 18.263 70.0703 18.1953C70.1224 18.1224 70.1693 18.0521 70.2109 17.9844C70.2578 17.9115 70.3021 17.8385 70.3438 17.7656C70.3698 17.7344 70.3958 17.6875 70.4219 17.625C70.4323 17.599 70.4427 17.5755 70.4531 17.5547C70.4635 17.5286 70.474 17.5052 70.4844 17.4844C70.5573 17.3958 70.5911 17.349 70.5859 17.3438C70.5807 17.3385 70.5833 17.3229 70.5938 17.2969C70.6615 17.1406 70.6927 17.0208 70.6875 16.9375C70.6823 16.8542 70.6823 16.7708 70.6875 16.6875C70.6615 16.6302 70.638 16.5703 70.6172 16.5078C70.5964 16.4453 70.5755 16.3802 70.5547 16.3125C70.513 16.1719 70.4583 16.0521 70.3906 15.9531Z" fill="white"/>
</svg>
