<svg width="48" height="48" viewBox="0 0 48 48" fill="none" xmlns="http://www.w3.org/2000/svg">
<path d="M24.005 15.5C22.4137 15.5 20.8876 16.1321 19.7624 17.2574C18.6372 18.3826 18.005 19.9087 18.005 21.5C18.005 23.0913 18.6372 24.6174 19.7624 25.7426C20.8876 26.8679 22.4137 27.5 24.005 27.5C25.5963 27.5 27.1224 26.8679 28.2477 25.7426C29.3729 24.6174 30.005 23.0913 30.005 21.5C30.005 19.9087 29.3729 18.3826 28.2477 17.2574C27.1224 16.1321 25.5963 15.5 24.005 15.5ZM20.505 21.5C20.505 20.5717 20.8738 19.6815 21.5302 19.0251C22.1865 18.3687 23.0768 18 24.005 18C24.9333 18 25.8235 18.3687 26.4799 19.0251C27.1363 19.6815 27.505 20.5717 27.505 21.5C27.505 22.4283 27.1363 23.3185 26.4799 23.9749C25.8235 24.6313 24.9333 25 24.005 25C23.0768 25 22.1865 24.6313 21.5302 23.9749C20.8738 23.3185 20.505 22.4283 20.505 21.5ZM37 32L26.912 42.71C26.5381 43.1071 26.0868 43.4235 25.586 43.6398C25.0852 43.8561 24.5455 43.9677 24 43.9677C23.4545 43.9677 22.9148 43.8561 22.414 43.6398C21.9132 43.4235 21.462 43.1071 21.088 42.71L11 32H11.038L11.021 31.98L11 31.955C8.41057 28.8928 6.99297 25.0103 7.00003 21C7.00003 11.611 14.611 4 24 4C33.389 4 41 11.611 41 21C41.0071 25.0103 39.5895 28.8928 37 31.955L36.979 31.98L36.962 32H37ZM35.057 30.381C37.2854 27.7639 38.5063 24.4373 38.5 21C38.5 12.992 32.008 6.5 24 6.5C15.992 6.5 9.50003 12.992 9.50003 21C9.49377 24.4373 10.7147 27.7639 12.943 30.381L13.251 30.744L22.908 40.995C23.0483 41.1439 23.2175 41.2626 23.4053 41.3437C23.5931 41.4248 23.7955 41.4666 24 41.4666C24.2046 41.4666 24.407 41.4248 24.5948 41.3437C24.7826 41.2626 24.9518 41.1439 25.092 40.995L34.749 30.744L35.057 30.381Z" fill="#978667"/>
</svg>
