<svg width="48" height="48" viewBox="0 0 48 48" fill="none" xmlns="http://www.w3.org/2000/svg">
<path d="M41.6944 29.7114L32.8613 25.7532L32.8369 25.742C32.3783 25.5459 31.8781 25.4671 31.3815 25.513C30.8848 25.5588 30.4074 25.7277 29.9925 26.0045C29.9436 26.0367 29.8967 26.0718 29.8519 26.1095L25.2881 30.0001C22.3969 28.5957 19.4119 25.6332 18.0075 22.7795L21.9038 18.1464C21.9413 18.0995 21.9769 18.0526 22.0106 18.002C22.2814 17.5882 22.4457 17.1138 22.4889 16.6212C22.5321 16.1285 22.4528 15.6328 22.2581 15.1782V15.1557L18.2888 6.30761C18.0314 5.71373 17.5889 5.21901 17.0272 4.89731C16.4656 4.5756 15.815 4.44416 15.1725 4.52261C12.6318 4.85693 10.2997 6.10467 8.61177 8.03279C6.92381 9.9609 5.99542 12.4375 6.00002 15.0001C6.00002 29.8876 18.1125 42.0001 33 42.0001C35.5626 42.0047 38.0392 41.0763 39.9673 39.3884C41.8955 37.7004 43.1432 35.3683 43.4775 32.8276C43.5561 32.1854 43.4249 31.5349 43.1036 30.9733C42.7822 30.4117 42.2879 29.969 41.6944 29.7114ZM33 39.0001C26.637 38.9932 20.5365 36.4624 16.0371 31.963C11.5378 27.4636 9.00697 21.3632 9.00002 15.0001C8.99296 13.1692 9.65261 11.3982 10.8558 10.0181C12.0589 8.63789 13.7233 7.74286 15.5381 7.50011C15.5374 7.50759 15.5374 7.51513 15.5381 7.52261L19.4756 16.3351L15.6 20.9739C15.5606 21.0191 15.5249 21.0673 15.4931 21.1182C15.211 21.5512 15.0455 22.0497 15.0126 22.5655C14.9798 23.0812 15.0807 23.5967 15.3056 24.062C17.0044 27.5364 20.505 31.0107 24.0169 32.7076C24.4856 32.9304 25.0041 33.0279 25.5217 32.9904C26.0393 32.953 26.5383 32.7819 26.97 32.4939C27.0183 32.4616 27.0646 32.4265 27.1088 32.3889L31.6669 28.5001L40.4794 32.447H40.5C40.2602 34.2644 39.3665 35.9321 37.9861 37.1382C36.6057 38.3444 34.8331 39.0063 33 39.0001Z" fill="#ffffff"/>
</svg>
